<svg width="515" height="506" viewBox="0 0 515 506" fill="none" xmlns="http://www.w3.org/2000/svg">
<path d="M28.7054 201.31L3.01791 72.848C2.78538 71.6851 5.08781 70.7839 5.73333 71.7787C15.4587 86.7663 37.8555 118.056 45.6422 123.514C46.0716 123.815 46.5965 123.723 46.8731 123.277L46.9005 123.233C56.3626 107.991 121.541 3 259.923 3C426.423 3 506.94 110.473 510.925 244.986C514.91 379.5 407.909 502.986 262.925 502.986C138.061 502.986 15.2606 413.244 28.887 245.67C28.9201 245.263 29.2024 244.905 29.5933 244.789C50.3092 238.62 67.8038 245.039 67.9464 249.986C71.9114 387.5 148.44 462.986 262.925 462.986C377.409 462.986 469.41 353 470.925 244.986C471.97 170.507 405.409 43 259.923 43C151.056 43 99.0035 114.786 79.3052 147.525C78.9055 148.189 79.4048 149 80.1801 149H154.277C155.373 149 155.67 150.509 154.656 150.925L30.0656 202.04C29.4838 202.278 28.8287 201.927 28.7054 201.31Z" fill="white" stroke="white" stroke-width="6"/>
</svg>
