<svg width="249" height="249" viewBox="0 0 249 249" fill="none" xmlns="http://www.w3.org/2000/svg">
<g clip-path="url(#clip0_613_21)">
<g clip-path="url(#clip1_613_21)">
<mask id="path-1-outside-1_613_21" maskUnits="userSpaceOnUse" x="64.8335" y="66.0418" width="118.411" height="134.784" fill="black">
<rect fill="white" x="64.8335" y="66.0418" width="118.411" height="134.784"/>
<path d="M76.7288 115.034L70.4071 100.192L136.855 71.8893L143.176 86.7311L117.986 97.4605L152.262 177.933L136.059 184.834L101.783 104.362L76.7288 115.034Z"/>
</mask>
<path d="M76.7288 115.034L73.0487 116.601L74.6162 120.281L78.2962 118.714L76.7288 115.034ZM70.4071 100.192L68.8396 96.5117L65.1595 98.0792L66.727 101.759L70.4071 100.192ZM136.855 71.8893L140.535 70.3218L138.967 66.6417L135.287 68.2092L136.855 71.8893ZM143.176 86.7311L144.744 90.4112L148.424 88.8437L146.856 85.1636L143.176 86.7311ZM117.986 97.4605L116.419 93.7804L112.739 95.3479L114.306 99.028L117.986 97.4605ZM152.262 177.933L153.83 181.613L157.51 180.045L155.942 176.365L152.262 177.933ZM136.059 184.834L132.379 186.402L133.946 190.082L137.626 188.515L136.059 184.834ZM101.783 104.362L105.463 102.795L103.895 99.1146L100.215 100.682L101.783 104.362ZM76.7288 115.034L80.4088 113.466L74.0872 98.6243L70.4071 100.192L66.727 101.759L73.0487 116.601L76.7288 115.034ZM70.4071 100.192L71.9746 103.872L138.422 75.5694L136.855 71.8893L135.287 68.2092L68.8396 96.5117L70.4071 100.192ZM136.855 71.8893L133.175 73.4568L139.496 88.2986L143.176 86.7311L146.856 85.1636L140.535 70.3218L136.855 71.8893ZM143.176 86.7311L141.609 83.051L116.419 93.7804L117.986 97.4605L119.554 101.141L144.744 90.4112L143.176 86.7311ZM117.986 97.4605L114.306 99.028L148.582 179.5L152.262 177.933L155.942 176.365L121.666 95.893L117.986 97.4605ZM152.262 177.933L150.695 174.253L134.491 181.154L136.059 184.834L137.626 188.515L153.83 181.613L152.262 177.933ZM136.059 184.834L139.739 183.267L105.463 102.795L101.783 104.362L98.1027 105.93L132.379 186.402L136.059 184.834ZM101.783 104.362L100.215 100.682L75.1613 111.353L76.7288 115.034L78.2962 118.714L103.35 108.042L101.783 104.362Z" fill="#50B6FF" mask="url(#path-1-outside-1_613_21)"/>
<mask id="path-3-outside-2_613_21" maskUnits="userSpaceOnUse" x="9.83679" y="9.08958" width="91.1998" height="120.329" fill="black">
<rect fill="white" x="9.83679" y="9.08958" width="91.1998" height="120.329"/>
<path d="M13.8666 23.5648L31.118 20.8478L47.2353 123.186L29.9839 125.903L13.8666 23.5648ZM26.495 37.1576L24.1004 21.953L44.7144 18.7065C52.1217 17.54 58.7617 17.8427 64.6342 19.6146C70.5888 21.2738 75.4529 24.2533 79.2265 28.5533C82.9847 32.7558 85.378 38.1221 86.4064 44.6523C87.4349 51.1825 86.8145 57.0734 84.5452 62.325C82.2759 67.5767 78.5707 71.9558 73.4296 75.4623C68.3707 78.856 62.1375 81.1361 54.7301 82.3027L34.1162 85.5492L31.7216 70.3446L52.3356 67.0981C58.2809 66.1618 62.8342 63.9964 65.9952 60.6019C69.1563 57.2075 70.3071 52.7812 69.4475 47.3232C68.5879 41.8651 66.1401 38.0555 62.1041 35.8945C58.0527 33.6359 53.0543 32.9748 47.1089 33.9111L26.495 37.1576Z"/>
</mask>
<path d="M13.8666 23.5648L13.3999 20.6013L10.4364 21.068L10.9031 24.0315L13.8666 23.5648ZM31.118 20.8478L34.0814 20.3811L33.6147 17.4177L30.6512 17.8844L31.118 20.8478ZM47.2353 123.186L47.702 126.15L50.6655 125.683L50.1987 122.72L47.2353 123.186ZM29.9839 125.903L27.0204 126.37L27.4871 129.334L30.4506 128.867L29.9839 125.903ZM26.495 37.1576L23.5315 37.6243L23.9983 40.5878L26.9617 40.1211L26.495 37.1576ZM24.1004 21.953L23.6337 18.9896L20.6703 19.4563L21.137 22.4197L24.1004 21.953ZM64.6342 19.6146L63.7676 22.4867L63.7982 22.496L63.8289 22.5045L64.6342 19.6146ZM79.2265 28.5533L76.9716 30.5321L76.9809 30.5427L76.9902 30.5531L79.2265 28.5533ZM84.5452 62.325L81.7913 61.1351L81.7913 61.1351L84.5452 62.325ZM73.4296 75.4623L75.1009 77.9536L75.1105 77.9472L75.12 77.9407L73.4296 75.4623ZM34.1162 85.5492L31.1527 86.0159L31.6194 88.9794L34.5829 88.5126L34.1162 85.5492ZM31.7216 70.3446L31.2549 67.3811L28.2914 67.8478L28.7582 70.8113L31.7216 70.3446ZM65.9952 60.6019L63.7998 58.5574L65.9952 60.6019ZM62.1041 35.8945L60.6433 38.5148L60.6655 38.5272L60.6879 38.5392L62.1041 35.8945ZM13.8666 23.5648L14.3333 26.5282L31.5847 23.8113L31.118 20.8478L30.6512 17.8844L13.3999 20.6013L13.8666 23.5648ZM31.118 20.8478L28.1545 21.3146L44.2718 123.653L47.2353 123.186L50.1987 122.72L34.0814 20.3811L31.118 20.8478ZM47.2353 123.186L46.7685 120.223L29.5172 122.94L29.9839 125.903L30.4506 128.867L47.702 126.15L47.2353 123.186ZM29.9839 125.903L32.9474 125.437L16.8301 23.098L13.8666 23.5648L10.9031 24.0315L27.0204 126.37L29.9839 125.903ZM26.495 37.1576L29.4585 36.6909L27.0639 21.4863L24.1004 21.953L21.137 22.4197L23.5315 37.6243L26.495 37.1576ZM24.1004 21.953L24.5672 24.9165L45.1811 21.67L44.7144 18.7065L44.2477 15.7431L23.6337 18.9896L24.1004 21.953ZM44.7144 18.7065L45.1811 21.67C52.2401 20.5583 58.4123 20.8708 63.7676 22.4867L64.6342 19.6146L65.5008 16.7425C59.1111 14.8145 52.0034 14.5216 44.2477 15.7431L44.7144 18.7065ZM64.6342 19.6146L63.8289 22.5045C69.2693 24.0204 73.6136 26.7057 76.9716 30.5321L79.2265 28.5533L81.4813 26.5745C77.2922 21.801 71.9083 18.5272 65.4394 16.7247L64.6342 19.6146ZM79.2265 28.5533L76.9902 30.5531C80.301 34.2553 82.4886 39.059 83.443 45.119L86.4064 44.6523L89.3699 44.1856C88.2674 37.1853 85.6683 31.2563 81.4627 26.5535L79.2265 28.5533ZM86.4064 44.6523L83.443 45.119C84.3971 51.1774 83.802 56.4817 81.7913 61.1351L84.5452 62.325L87.2991 63.515C89.8269 57.6651 90.4727 51.1876 89.3699 44.1856L86.4064 44.6523ZM84.5452 62.325L81.7913 61.1351C79.767 65.8196 76.4538 69.7683 71.7392 72.9839L73.4296 75.4623L75.12 77.9407C80.6876 74.1433 84.7847 69.3338 87.2991 63.515L84.5452 62.325ZM73.4296 75.4623L71.7584 72.9709C67.1355 76.072 61.337 78.2252 54.2634 79.3392L54.7301 82.3027L55.1968 85.2662C62.938 84.047 69.6058 81.6399 75.1009 77.9536L73.4296 75.4623ZM54.7301 82.3027L54.2634 79.3392L33.6495 82.5857L34.1162 85.5492L34.5829 88.5126L55.1968 85.2662L54.7301 82.3027ZM34.1162 85.5492L37.0797 85.0825L34.6851 69.8779L31.7216 70.3446L28.7582 70.8113L31.1527 86.0159L34.1162 85.5492ZM31.7216 70.3446L32.1884 73.3081L52.8023 70.0616L52.3356 67.0981L51.8688 64.1346L31.2549 67.3811L31.7216 70.3446ZM52.3356 67.0981L52.8023 70.0616C59.2117 69.0522 64.4519 66.6613 68.1907 62.6464L65.9952 60.6019L63.7998 58.5574C61.2165 61.3315 57.3502 63.2714 51.8688 64.1346L52.3356 67.0981ZM65.9952 60.6019L68.1907 62.6464C72.1031 58.4452 73.3833 53.0305 72.4109 46.8565L69.4475 47.3232L66.484 47.7899C67.2308 52.532 66.2096 55.9697 63.7998 58.5574L65.9952 60.6019ZM69.4475 47.3232L72.4109 46.8565C71.439 40.6853 68.5595 35.948 63.5202 33.2497L62.1041 35.8945L60.6879 38.5392C63.7207 40.1631 65.7367 43.045 66.484 47.7899L69.4475 47.3232ZM62.1041 35.8945L63.5648 33.2741C58.773 30.6028 53.0516 29.9383 46.6422 30.9477L47.1089 33.9111L47.5757 36.8746C53.057 36.0114 57.3324 36.669 60.6433 38.5148L62.1041 35.8945ZM47.1089 33.9111L46.6422 30.9477L26.0283 34.1942L26.495 37.1576L26.9617 40.1211L47.5757 36.8746L47.1089 33.9111Z" fill="#FFB044" mask="url(#path-3-outside-2_613_21)"/>
<mask id="path-5-outside-3_613_21" maskUnits="userSpaceOnUse" x="144.307" y="116.414" width="101.179" height="128.644" fill="black">
<rect fill="white" x="144.307" y="116.414" width="101.179" height="128.644"/>
<path d="M168.705 195.035C170.333 199.287 172.176 203.123 174.234 206.543C176.405 209.882 178.92 212.625 181.778 214.773C184.651 216.824 188.037 218.156 191.936 218.77C196.614 219.507 200.615 218.838 203.938 216.765C207.261 214.691 209.237 211.656 209.866 207.66C210.465 203.859 210.015 200.692 208.516 198.159C207.033 195.528 204.757 193.172 201.689 191.09C198.733 188.927 195.234 186.728 191.191 184.493C188.795 183.217 186.153 181.602 183.264 179.649C180.391 177.598 177.718 175.229 175.244 172.542C172.786 169.758 170.892 166.563 169.562 162.958C168.247 159.255 167.966 155.015 168.718 150.24C169.578 144.782 171.743 140.228 175.214 136.58C178.701 132.834 183.009 130.216 188.138 128.727C193.379 127.155 199.07 126.853 205.211 127.82C211.253 128.772 216.348 130.673 220.493 133.523C224.639 136.373 227.962 139.693 230.461 143.483C233.058 147.288 234.95 151.132 236.136 155.014L220.858 160.699C219.99 157.965 218.75 155.372 217.139 152.921C215.542 150.373 213.528 148.257 211.096 146.576C208.777 144.812 205.912 143.662 202.501 143.125C197.725 142.373 194.039 142.941 191.445 144.829C188.865 146.621 187.345 148.978 186.885 151.902C186.47 154.534 186.874 157.044 188.096 159.434C189.43 161.742 191.657 164.09 194.777 166.479C197.897 168.869 202.032 171.468 207.183 174.276C210.036 175.824 212.842 177.665 215.603 179.798C218.461 181.946 220.957 184.486 223.092 187.419C225.243 190.255 226.788 193.445 227.728 196.989C228.765 200.549 228.931 204.57 228.225 209.053C227.473 213.829 225.872 217.972 223.421 221.481C220.971 224.991 217.93 227.808 214.299 229.933C210.684 231.961 206.722 233.334 202.413 234.054C198.187 234.887 193.881 234.958 189.495 234.267C183.452 233.315 178.032 231.263 173.235 228.11C168.55 224.876 164.622 220.961 161.45 216.366C158.279 211.771 155.94 206.958 154.435 201.927L168.705 195.035Z"/>
</mask>
<path d="M168.705 195.035L172.441 193.605L170.885 189.54L166.966 191.433L168.705 195.035ZM174.234 206.543L170.807 208.606L170.843 208.666L170.881 208.724L174.234 206.543ZM181.778 214.773L179.374 217.971L179.414 218L179.454 218.029L181.778 214.773ZM208.516 198.159L205.032 200.123L205.052 200.159L205.073 200.195L208.516 198.159ZM201.689 191.09L199.326 194.318L199.384 194.36L199.443 194.401L201.689 191.09ZM191.191 184.493L193.126 180.992L193.099 180.977L193.072 180.963L191.191 184.493ZM183.264 179.649L180.941 182.905L180.982 182.934L181.024 182.962L183.264 179.649ZM175.244 172.542L172.245 175.19L172.273 175.221L172.301 175.252L175.244 172.542ZM169.562 162.958L165.792 164.296L165.801 164.319L165.809 164.342L169.562 162.958ZM175.214 136.58L178.112 139.337L178.128 139.321L178.142 139.305L175.214 136.58ZM188.138 128.727L189.253 132.568L189.27 132.563L189.286 132.558L188.138 128.727ZM220.493 133.523L222.76 130.227L222.76 130.227L220.493 133.523ZM230.461 143.483L227.122 145.685L227.14 145.712L227.157 145.738L230.461 143.483ZM236.136 155.014L237.531 158.763L241.063 157.449L239.962 153.845L236.136 155.014ZM220.858 160.699L217.046 161.909L218.317 165.912L222.253 164.447L220.858 160.699ZM217.139 152.921L213.749 155.044L213.772 155.082L213.796 155.119L217.139 152.921ZM211.096 146.576L208.675 149.76L208.747 149.815L208.821 149.866L211.096 146.576ZM191.445 144.829L193.726 148.115L193.763 148.09L193.799 148.063L191.445 144.829ZM188.096 159.434L184.534 161.255L184.581 161.347L184.633 161.437L188.096 159.434ZM194.777 166.479L197.209 163.304L194.777 166.479ZM207.183 174.276L205.268 177.788L205.275 177.792L207.183 174.276ZM215.603 179.798L213.157 182.963L213.178 182.979L213.199 182.995L215.603 179.798ZM223.092 187.419L219.858 189.773L219.881 189.805L219.905 189.836L223.092 187.419ZM227.728 196.989L223.862 198.015L223.874 198.062L223.888 198.109L227.728 196.989ZM223.421 221.481L220.141 219.191L223.421 221.481ZM214.299 229.933L216.256 233.422L216.288 233.404L216.32 233.385L214.299 229.933ZM202.413 234.054L201.754 230.109L201.697 230.118L201.64 230.13L202.413 234.054ZM173.235 228.11L170.962 231.402L171 231.428L171.038 231.453L173.235 228.11ZM161.45 216.366L158.159 218.639L161.45 216.366ZM154.435 201.927L152.696 198.325L149.626 199.807L150.603 203.073L154.435 201.927ZM168.705 195.035L164.97 196.465C166.67 200.906 168.612 204.958 170.807 208.606L174.234 206.543L177.662 204.481C175.74 201.287 173.996 197.667 172.441 193.605L168.705 195.035ZM174.234 206.543L170.881 208.724C173.278 212.41 176.103 215.512 179.374 217.971L181.778 214.773L184.181 211.576C181.737 209.738 179.533 207.354 177.587 204.363L174.234 206.543ZM181.778 214.773L179.454 218.029C182.89 220.481 186.874 222.022 191.313 222.721L191.936 218.77L192.558 214.819C189.199 214.29 186.412 213.166 184.101 211.517L181.778 214.773ZM191.936 218.77L191.313 222.721C196.734 223.575 201.753 222.843 206.055 220.158L203.938 216.765L201.82 213.371C199.476 214.834 196.493 215.439 192.558 214.819L191.936 218.77ZM203.938 216.765L206.055 220.158C210.399 217.448 213.015 213.382 213.818 208.283L209.866 207.66L205.915 207.038C205.459 209.931 204.123 211.935 201.82 213.371L203.938 216.765ZM209.866 207.66L213.818 208.283C214.516 203.849 214.06 199.673 211.959 196.122L208.516 198.159L205.073 200.195C205.97 201.711 206.414 203.87 205.915 207.038L209.866 207.66ZM208.516 198.159L212 196.194C210.152 192.916 207.399 190.131 203.934 187.78L201.689 191.09L199.443 194.401C202.114 196.213 203.913 198.139 205.032 200.123L208.516 198.159ZM201.689 191.09L204.051 187.863C200.929 185.577 197.281 183.289 193.126 180.992L191.191 184.493L189.256 187.994C193.187 190.167 196.537 192.276 199.326 194.318L201.689 191.09ZM191.191 184.493L193.072 180.963C190.828 179.768 188.308 178.231 185.505 176.335L183.264 179.649L181.024 182.962C183.998 184.973 186.762 186.666 189.311 188.023L191.191 184.493ZM183.264 179.649L185.588 176.393C182.947 174.508 180.48 172.324 178.187 169.833L175.244 172.542L172.301 175.252C174.955 178.135 177.835 180.688 180.941 182.905L183.264 179.649ZM175.244 172.542L178.243 169.895C176.123 167.494 174.48 164.731 173.315 161.573L169.562 162.958L165.809 164.342C167.304 168.395 169.449 172.022 172.245 175.19L175.244 172.542ZM169.562 162.958L173.332 161.62C172.286 158.674 171.998 155.129 172.67 150.862L168.718 150.24L164.767 149.617C163.935 154.902 164.209 159.836 165.792 164.296L169.562 162.958ZM168.718 150.24L172.67 150.862C173.416 146.124 175.255 142.34 178.112 139.337L175.214 136.58L172.317 133.823C168.231 138.117 165.74 143.439 164.767 149.617L168.718 150.24ZM175.214 136.58L178.142 139.305C181.115 136.112 184.786 133.865 189.253 132.568L188.138 128.727L187.022 124.886C181.231 126.567 176.287 129.556 172.287 133.855L175.214 136.58ZM188.138 128.727L189.286 132.558C193.881 131.181 198.959 130.885 204.588 131.771L205.211 127.82L205.833 123.869C199.181 122.821 192.878 123.13 186.989 124.895L188.138 128.727ZM205.211 127.82L204.588 131.771C210.166 132.65 214.668 134.372 218.227 136.819L220.493 133.523L222.76 130.227C218.027 126.973 212.341 124.894 205.833 123.869L205.211 127.82ZM220.493 133.523L218.227 136.819C221.994 139.409 224.936 142.37 227.122 145.685L230.461 143.483L233.8 141.281C230.988 137.016 227.284 133.338 222.76 130.227L220.493 133.523ZM230.461 143.483L227.157 145.738C229.557 149.253 231.257 152.735 232.311 156.183L236.136 155.014L239.962 153.845C238.643 149.528 236.56 145.322 233.765 141.228L230.461 143.483ZM236.136 155.014L234.742 151.265L219.463 156.95L220.858 160.699L222.253 164.447L237.531 158.763L236.136 155.014ZM220.858 160.699L224.67 159.488C223.689 156.398 222.289 153.474 220.481 150.724L217.139 152.921L213.796 155.119C215.211 157.271 216.291 159.532 217.046 161.909L220.858 160.699ZM217.139 152.921L220.529 150.798C218.649 147.797 216.258 145.282 213.371 143.286L211.096 146.576L208.821 149.866C210.799 151.233 212.436 152.948 213.749 155.044L217.139 152.921ZM211.096 146.576L213.517 143.392C210.582 141.16 207.067 139.795 203.123 139.173L202.501 143.125L201.878 147.076C204.757 147.529 206.972 148.465 208.675 149.76L211.096 146.576ZM202.501 143.125L203.123 139.173C197.823 138.339 192.893 138.828 189.091 141.595L191.445 144.829L193.799 148.063C195.186 147.054 197.627 146.406 201.878 147.076L202.501 143.125ZM191.445 144.829L189.163 141.544C185.748 143.915 183.575 147.206 182.934 151.28L186.885 151.902L190.836 152.524C191.116 150.75 191.982 149.326 193.726 148.115L191.445 144.829ZM186.885 151.902L182.934 151.28C182.387 154.753 182.931 158.119 184.534 161.255L188.096 159.434L191.657 157.613C190.817 155.97 190.554 154.314 190.836 152.524L186.885 151.902ZM188.096 159.434L184.633 161.437C186.325 164.362 188.988 167.085 192.345 169.655L194.777 166.479L197.209 163.304C194.327 161.096 192.536 159.122 191.558 157.432L188.096 159.434ZM194.777 166.479L192.345 169.655C195.687 172.214 200.015 174.924 205.268 177.788L207.183 174.276L209.098 170.765C204.049 168.011 200.107 165.523 197.209 163.304L194.777 166.479ZM207.183 174.276L205.275 177.792C207.926 179.231 210.554 180.951 213.157 182.963L215.603 179.798L218.048 176.632C215.131 174.378 212.145 172.418 209.091 170.761L207.183 174.276ZM215.603 179.798L213.199 182.995C215.735 184.901 217.953 187.156 219.858 189.773L223.092 187.419L226.326 185.066C223.961 181.816 221.186 178.99 218.006 176.6L215.603 179.798ZM223.092 187.419L219.905 189.836C221.731 192.244 223.051 194.959 223.862 198.015L227.728 196.989L231.594 195.964C230.525 191.932 228.754 188.266 226.279 185.003L223.092 187.419ZM227.728 196.989L223.888 198.109C224.728 200.99 224.908 204.402 224.274 208.431L228.225 209.053L232.176 209.676C232.954 204.738 232.803 200.107 231.568 195.87L227.728 196.989ZM228.225 209.053L224.274 208.431C223.604 212.685 222.202 216.241 220.141 219.191L223.421 221.481L226.701 223.771C229.541 219.703 231.342 214.973 232.176 209.676L228.225 209.053ZM223.421 221.481L220.141 219.191C218.016 222.236 215.402 224.653 212.279 226.481L214.299 229.933L216.32 233.385C220.458 230.963 223.925 227.746 226.701 223.771L223.421 221.481ZM214.299 229.933L212.343 226.444C209.151 228.234 205.632 229.461 201.754 230.109L202.413 234.054L203.072 238C207.812 237.208 212.216 235.687 216.256 233.422L214.299 229.933ZM202.413 234.054L201.64 230.13C197.888 230.869 194.055 230.936 190.117 230.316L189.495 234.267L188.873 238.218C193.707 238.98 198.486 238.905 203.187 237.979L202.413 234.054ZM189.495 234.267L190.117 230.316C184.599 229.447 179.722 227.588 175.432 224.768L173.235 228.11L171.038 231.453C176.342 234.939 182.305 237.184 188.873 238.218L189.495 234.267ZM173.235 228.11L175.508 224.819C171.214 221.854 167.633 218.282 164.742 214.094L161.45 216.366L158.159 218.639C161.611 223.64 165.887 227.897 170.962 231.402L173.235 228.11ZM161.45 216.366L164.742 214.094C161.793 209.822 159.645 205.386 158.268 200.781L154.435 201.927L150.603 203.073C152.235 208.531 154.764 213.721 158.159 218.639L161.45 216.366ZM154.435 201.927L156.175 205.529L170.445 198.637L168.705 195.035L166.966 191.433L152.696 198.325L154.435 201.927Z" fill="#2EC4B6" mask="url(#path-5-outside-3_613_21)"/>
</g>
</g>
<defs>
<clipPath id="clip0_613_21">
<rect width="249" height="249" fill="white"/>
</clipPath>
<clipPath id="clip1_613_21">
<rect width="251" height="251" fill="white" transform="translate(-2)"/>
</clipPath>
</defs>
</svg>
