<svg width="251" height="251" viewBox="0 0 251 251" fill="none" xmlns="http://www.w3.org/2000/svg">
<g clip-path="url(#clip0_655_50)">
<mask id="path-1-outside-1_655_50" maskUnits="userSpaceOnUse" x="62.8978" y="62.1061" width="126.283" height="142.655" fill="black">
<rect fill="white" x="62.8978" y="62.1061" width="126.283" height="142.655"/>
<path d="M78.7288 115.034L72.4071 100.192L138.855 71.8893L145.176 86.7311L119.986 97.4605L154.262 177.933L138.059 184.834L103.783 104.362L78.7288 115.034Z"/>
</mask>
<path d="M78.7288 115.034L72.2886 117.777L75.0317 124.217L81.4718 121.474L78.7288 115.034ZM72.4071 100.192L69.664 93.7517L63.2238 96.4948L65.9669 102.935L72.4071 100.192ZM138.855 71.8893L145.295 69.1462L142.552 62.7061L136.112 65.4492L138.855 71.8893ZM145.176 86.7311L147.919 93.1712L154.36 90.4281L151.616 83.988L145.176 86.7311ZM119.986 97.4605L117.243 91.0204L110.803 93.7635L113.546 100.204L119.986 97.4605ZM154.262 177.933L157.005 184.373L163.446 181.63L160.702 175.19L154.262 177.933ZM138.059 184.834L131.619 187.578L134.362 194.018L140.802 191.275L138.059 184.834ZM103.783 104.362L110.223 101.619L107.48 95.1789L101.04 97.922L103.783 104.362ZM78.7288 115.034L85.1689 112.29L78.8472 97.4487L72.4071 100.192L65.9669 102.935L72.2886 117.777L78.7288 115.034ZM72.4071 100.192L75.1502 106.632L141.598 78.3295L138.855 71.8893L136.112 65.4492L69.664 93.7517L72.4071 100.192ZM138.855 71.8893L132.414 74.6324L138.736 89.4742L145.176 86.7311L151.616 83.988L145.295 69.1462L138.855 71.8893ZM145.176 86.7311L142.433 80.2909L117.243 91.0204L119.986 97.4605L122.729 103.901L147.919 93.1712L145.176 86.7311ZM119.986 97.4605L113.546 100.204L147.822 180.676L154.262 177.933L160.702 175.19L126.426 94.7174L119.986 97.4605ZM154.262 177.933L151.519 171.493L135.316 178.394L138.059 184.834L140.802 191.275L157.005 184.373L154.262 177.933ZM138.059 184.834L144.499 182.091L110.223 101.619L103.783 104.362L97.3426 107.105L131.619 187.578L138.059 184.834ZM103.783 104.362L101.04 97.922L75.9857 108.593L78.7288 115.034L81.4718 121.474L106.526 110.802L103.783 104.362Z" fill="#50B6FF" mask="url(#path-1-outside-1_655_50)"/>
<mask id="path-3-outside-2_655_50" maskUnits="userSpaceOnUse" x="7.2632" y="4.51599" width="100.347" height="129.476" fill="black">
<rect fill="white" x="7.2632" y="4.51599" width="100.347" height="129.476"/>
<path d="M15.8666 23.5648L33.118 20.8478L49.2353 123.186L31.9839 125.903L15.8666 23.5648ZM28.495 37.1576L26.1004 21.953L46.7144 18.7065C54.1217 17.54 60.7617 17.8427 66.6342 19.6146C72.5888 21.2738 77.4529 24.2533 81.2265 28.5533C84.9847 32.7558 87.378 38.1221 88.4064 44.6523C89.4349 51.1825 88.8145 57.0734 86.5452 62.325C84.2759 67.5767 80.5707 71.9558 75.4296 75.4623C70.3707 78.856 64.1375 81.1361 56.7301 82.3027L36.1162 85.5492L33.7216 70.3446L54.3356 67.0981C60.2809 66.1618 64.8342 63.9964 67.9952 60.6019C71.1563 57.2075 72.3071 52.7812 71.4475 47.3232C70.5879 41.8651 68.1401 38.0555 64.1041 35.8945C60.0527 33.6359 55.0543 32.9748 49.1089 33.9111L28.495 37.1576Z"/>
</mask>
<path d="M15.8666 23.5648L14.7776 16.65L7.86281 17.739L8.95182 24.6538L15.8666 23.5648ZM33.118 20.8478L40.0327 19.7588L38.9437 12.8441L32.0289 13.9331L33.118 20.8478ZM49.2353 123.186L50.3243 130.101L57.239 129.012L56.15 122.097L49.2353 123.186ZM31.9839 125.903L25.0691 126.992L26.1581 133.907L33.0729 132.818L31.9839 125.903ZM28.495 37.1576L21.5802 38.2466L22.6693 45.1614L29.584 44.0724L28.495 37.1576ZM26.1004 21.953L25.0114 15.0383L18.0967 16.1273L19.1857 23.042L26.1004 21.953ZM66.6342 19.6146L64.612 26.3162L64.6835 26.3377L64.7553 26.3578L66.6342 19.6146ZM81.2265 28.5533L75.9652 33.1705L75.9868 33.1951L76.0086 33.2195L81.2265 28.5533ZM86.5452 62.325L80.1194 59.5484L80.1194 59.5484L86.5452 62.325ZM75.4296 75.4623L79.3293 81.2754L79.3516 81.2604L79.3739 81.2452L75.4296 75.4623ZM36.1162 85.5492L29.2014 86.6382L30.2904 93.553L37.2052 92.4639L36.1162 85.5492ZM33.7216 70.3446L32.6326 63.4298L25.7179 64.5188L26.8069 71.4336L33.7216 70.3446ZM67.9952 60.6019L62.8725 55.8314L62.8725 55.8314L67.9952 60.6019ZM64.1041 35.8945L60.6956 42.0086L60.7474 42.0375L60.7998 42.0655L64.1041 35.8945ZM15.8666 23.5648L16.9556 30.4795L34.207 27.7626L33.118 20.8478L32.0289 13.9331L14.7776 16.65L15.8666 23.5648ZM33.118 20.8478L26.2032 21.9369L42.3205 124.275L49.2353 123.186L56.15 122.097L40.0327 19.7588L33.118 20.8478ZM49.2353 123.186L48.1463 116.272L30.8949 118.989L31.9839 125.903L33.0729 132.818L50.3243 130.101L49.2353 123.186ZM31.9839 125.903L38.8987 124.814L22.7814 22.4758L15.8666 23.5648L8.95182 24.6538L25.0691 126.992L31.9839 125.903ZM28.495 37.1576L35.4098 36.0686L33.0152 20.864L26.1004 21.953L19.1857 23.042L21.5802 38.2466L28.495 37.1576ZM26.1004 21.953L27.1895 28.8678L47.8034 25.6213L46.7144 18.7065L45.6254 11.7918L25.0114 15.0383L26.1004 21.953ZM46.7144 18.7065L47.8034 25.6213C54.3979 24.5827 59.9465 24.9084 64.612 26.3162L66.6342 19.6146L68.6563 12.9131C61.5769 10.7769 53.8455 10.4972 45.6254 11.7918L46.7144 18.7065ZM66.6342 19.6146L64.7553 26.3578C69.51 27.6826 73.1612 29.9754 75.9652 33.1705L81.2265 28.5533L86.4878 23.9361C81.7446 18.5313 75.6676 14.865 68.513 12.8715L66.6342 19.6146ZM81.2265 28.5533L76.0086 33.2195C78.7229 36.2547 80.636 40.308 81.4917 45.7413L88.4064 44.6523L95.3212 43.5633C94.12 35.9362 91.2465 29.2569 86.4443 23.8871L81.2265 28.5533ZM88.4064 44.6523L81.4917 45.7413C82.3467 51.1705 81.7855 55.6928 80.1194 59.5484L86.5452 62.325L92.9709 65.1017C95.8434 58.454 96.523 51.1945 95.3212 43.5633L88.4064 44.6523ZM86.5452 62.325L80.1194 59.5484C78.4219 63.4768 75.6312 66.8516 71.4853 69.6793L75.4296 75.4623L79.3739 81.2452C85.5102 77.0599 90.1298 71.6766 92.9709 65.1017L86.5452 62.325ZM75.4296 75.4623L71.53 69.6491C67.4886 72.3602 62.2696 74.344 55.6411 75.3879L56.7301 82.3027L57.8191 89.2175C66.0054 87.9282 73.2527 85.3518 79.3293 81.2754L75.4296 75.4623ZM56.7301 82.3027L55.6411 75.3879L35.0272 78.6344L36.1162 85.5492L37.2052 92.4639L57.8191 89.2175L56.7301 82.3027ZM36.1162 85.5492L43.031 84.4602L40.6364 69.2556L33.7216 70.3446L26.8069 71.4336L29.2014 86.6382L36.1162 85.5492ZM33.7216 70.3446L34.8106 77.2593L55.4246 74.0129L54.3356 67.0981L53.2465 60.1833L32.6326 63.4298L33.7216 70.3446ZM54.3356 67.0981L55.4246 74.0129C62.4526 72.906 68.6088 70.2144 73.118 65.3724L67.9952 60.6019L62.8725 55.8314C61.0595 57.7783 58.1092 59.4175 53.2465 60.1833L54.3356 67.0981ZM67.9952 60.6019L73.1179 65.3724C78.0321 60.0956 79.4849 53.3628 78.3622 46.2342L71.4475 47.3232L64.5327 48.4122C65.1292 52.1996 64.2806 54.3194 62.8725 55.8314L67.9952 60.6019ZM71.4475 47.3232L78.3622 46.2342C77.2406 39.1121 73.7853 33.138 67.4084 29.7234L64.1041 35.8945L60.7998 42.0655C62.4949 42.9731 63.9352 44.6181 64.5327 48.4122L71.4475 47.3232ZM64.1041 35.8945L67.5126 29.7804C61.7335 26.5586 55.048 25.8895 48.0199 26.9964L49.1089 33.9111L50.1979 40.8259C55.0607 40.0601 58.3719 40.7132 60.6956 42.0086L64.1041 35.8945ZM49.1089 33.9111L48.0199 26.9964L27.406 30.2429L28.495 37.1576L29.584 44.0724L50.1979 40.8259L49.1089 33.9111Z" fill="#FFB044" mask="url(#path-3-outside-2_655_50)"/>
<mask id="path-5-outside-3_655_50" maskUnits="userSpaceOnUse" x="141.889" y="112.828" width="110.015" height="135.815" fill="black">
<rect fill="white" x="141.889" y="112.828" width="110.015" height="135.815"/>
<path d="M170.705 195.035C172.333 199.287 174.176 203.123 176.234 206.543C178.405 209.882 180.92 212.625 183.778 214.773C186.651 216.824 190.037 218.156 193.936 218.77C198.614 219.507 202.615 218.838 205.938 216.765C209.261 214.691 211.237 211.656 211.866 207.66C212.465 203.859 212.015 200.692 210.516 198.159C209.033 195.528 206.757 193.172 203.689 191.09C200.733 188.927 197.234 186.728 193.191 184.493C190.795 183.217 188.153 181.602 185.264 179.649C182.391 177.598 179.718 175.229 177.244 172.542C174.786 169.758 172.892 166.563 171.562 162.958C170.247 159.255 169.966 155.015 170.718 150.24C171.578 144.782 173.743 140.228 177.214 136.58C180.701 132.834 185.009 130.216 190.138 128.727C195.379 127.155 201.07 126.853 207.211 127.82C213.253 128.772 218.348 130.673 222.493 133.523C226.639 136.373 229.962 139.693 232.461 143.483C235.058 147.288 236.95 151.132 238.136 155.014L222.858 160.699C221.99 157.965 220.75 155.372 219.139 152.921C217.542 150.373 215.528 148.257 213.096 146.576C210.777 144.812 207.912 143.662 204.501 143.125C199.725 142.373 196.039 142.941 193.445 144.829C190.865 146.621 189.345 148.978 188.885 151.902C188.47 154.534 188.874 157.044 190.096 159.434C191.43 161.742 193.657 164.09 196.777 166.479C199.897 168.869 204.032 171.468 209.183 174.276C212.036 175.824 214.842 177.665 217.603 179.798C220.461 181.946 222.957 184.486 225.092 187.419C227.243 190.255 228.788 193.445 229.728 196.989C230.765 200.549 230.931 204.57 230.225 209.053C229.473 213.829 227.872 217.972 225.421 221.481C222.971 224.991 219.93 227.808 216.299 229.933C212.684 231.961 208.722 233.334 204.413 234.054C200.187 234.887 195.881 234.958 191.495 234.267C185.452 233.315 180.032 231.263 175.235 228.11C170.55 224.876 166.622 220.961 163.45 216.366C160.279 211.771 157.94 206.958 156.435 201.927L170.705 195.035Z"/>
</mask>
<path d="M170.705 195.035L177.243 192.532L174.519 185.419L167.661 188.732L170.705 195.035ZM176.234 206.543L170.236 210.152L170.299 210.257L170.366 210.36L176.234 206.543ZM183.778 214.773L179.572 220.369L179.641 220.421L179.711 220.471L183.778 214.773ZM210.516 198.159L204.419 201.597L204.454 201.66L204.491 201.723L210.516 198.159ZM203.689 191.09L199.554 196.739L199.655 196.813L199.759 196.883L203.689 191.09ZM193.191 184.493L196.578 178.367L196.53 178.34L196.482 178.315L193.191 184.493ZM185.264 179.649L181.198 185.346L181.27 185.398L181.343 185.448L185.264 179.649ZM177.244 172.542L171.996 177.175L172.045 177.23L172.094 177.283L177.244 172.542ZM171.562 162.958L164.965 165.3L164.98 165.34L164.995 165.38L171.562 162.958ZM177.214 136.58L182.286 141.405L182.312 141.377L182.338 141.349L177.214 136.58ZM190.138 128.727L192.09 135.449L192.119 135.441L192.148 135.432L190.138 128.727ZM222.493 133.523L226.459 127.755L226.459 127.755L222.493 133.523ZM232.461 143.483L226.618 147.337L226.648 147.383L226.68 147.429L232.461 143.483ZM238.136 155.014L240.577 161.575L246.758 159.275L244.831 152.969L238.136 155.014ZM222.858 160.699L216.186 162.817L218.41 169.822L225.299 167.259L222.858 160.699ZM219.139 152.921L213.206 156.637L213.247 156.702L213.29 156.767L219.139 152.921ZM213.096 146.576L208.859 152.148L208.985 152.244L209.115 152.334L213.096 146.576ZM193.445 144.829L197.437 150.579L197.501 150.535L197.564 150.489L193.445 144.829ZM190.096 159.434L183.863 162.621L183.946 162.782L184.036 162.939L190.096 159.434ZM196.777 166.479L201.033 160.922L196.777 166.479ZM209.183 174.276L205.832 180.422L205.838 180.426L205.845 180.429L209.183 174.276ZM217.603 179.798L213.323 185.337L213.36 185.365L213.397 185.393L217.603 179.798ZM225.092 187.419L219.433 191.539L219.473 191.594L219.515 191.649L225.092 187.419ZM229.728 196.989L222.962 198.784L222.984 198.866L223.008 198.948L229.728 196.989ZM225.421 221.481L219.682 217.474L225.421 221.481ZM216.299 229.933L219.723 236.039L219.779 236.007L219.835 235.974L216.299 229.933ZM204.413 234.054L203.26 227.15L203.16 227.167L203.06 227.186L204.413 234.054ZM175.235 228.11L171.257 233.871L171.323 233.916L171.39 233.96L175.235 228.11ZM163.45 216.366L157.69 220.343L157.69 220.343L163.45 216.366ZM156.435 201.927L153.391 195.624L148.019 198.218L149.729 203.933L156.435 201.927ZM170.705 195.035L164.168 197.538C165.923 202.121 167.939 206.335 170.236 210.152L176.234 206.543L182.232 202.934C180.413 199.911 178.743 196.452 177.243 192.532L170.705 195.035ZM176.234 206.543L170.366 210.36C172.932 214.306 175.99 217.676 179.572 220.369L183.778 214.773L187.984 209.177C185.85 207.574 183.878 205.457 182.102 202.727L176.234 206.543ZM183.778 214.773L179.711 220.471C183.569 223.224 188.003 224.922 192.847 225.685L193.936 218.77L195.025 211.855C192.071 211.39 189.733 210.423 187.844 209.075L183.778 214.773ZM193.936 218.77L192.847 225.685C198.825 226.626 204.607 225.846 209.643 222.703L205.938 216.765L202.232 210.826C200.622 211.831 198.403 212.387 195.025 211.855L193.936 218.77ZM205.938 216.765L209.643 222.703C214.752 219.515 217.848 214.676 218.781 208.749L211.866 207.66L204.951 206.571C204.626 208.637 203.769 209.867 202.232 210.826L205.938 216.765ZM211.866 207.66L218.781 208.749C219.554 203.841 219.094 198.909 216.541 194.594L210.516 198.159L204.491 201.723C204.936 202.475 205.376 203.878 204.951 206.571L211.866 207.66ZM210.516 198.159L216.613 194.72C214.492 190.958 211.381 187.85 207.618 185.297L203.689 191.09L199.759 196.883C202.132 198.493 203.573 200.098 204.419 201.597L210.516 198.159ZM203.689 191.09L207.823 185.442C204.577 183.065 200.816 180.71 196.578 178.367L193.191 184.493L189.805 190.619C193.652 192.746 196.89 194.788 199.554 196.739L203.689 191.09ZM193.191 184.493L196.482 178.315C194.353 177.181 191.924 175.702 189.185 173.85L185.264 179.649L181.343 185.448C184.381 187.502 187.237 189.252 189.9 190.671L193.191 184.493ZM185.264 179.649L189.331 173.951C186.864 172.191 184.552 170.145 182.394 167.801L177.244 172.542L172.094 177.283C174.883 180.314 177.918 183.006 181.198 185.346L185.264 179.649ZM177.244 172.542L182.492 167.91C180.626 165.797 179.17 163.357 178.129 160.535L171.562 162.958L164.995 165.38C166.613 169.769 168.946 173.72 171.996 177.175L177.244 172.542ZM171.562 162.958L178.159 160.616C177.314 158.238 177.021 155.215 177.633 151.329L170.718 150.24L163.804 149.151C162.911 154.816 163.18 160.272 164.965 165.3L171.562 162.958ZM170.718 150.24L177.633 151.329C178.294 147.131 179.889 143.924 182.286 141.405L177.214 136.58L172.143 131.755C167.597 136.533 164.862 142.432 163.804 149.151L170.718 150.24ZM177.214 136.58L182.338 141.349C184.925 138.57 188.12 136.602 192.09 135.449L190.138 128.727L188.185 122.005C181.898 123.831 176.477 127.098 172.091 131.811L177.214 136.58ZM190.138 128.727L192.148 135.432C196.257 134.2 200.876 133.909 206.122 134.735L207.211 127.82L208.3 120.905C201.265 119.797 194.502 120.11 188.127 122.022L190.138 128.727ZM207.211 127.82L206.122 134.735C211.351 135.558 215.409 137.147 218.528 139.291L222.493 133.523L226.459 127.755C221.286 124.198 215.156 121.985 208.3 120.905L207.211 127.82ZM222.493 133.523L218.528 139.291C222.01 141.686 224.666 144.378 226.618 147.337L232.461 143.483L238.305 139.629C235.257 135.009 231.268 131.061 226.459 127.755L222.493 133.523ZM232.461 143.483L226.68 147.429C228.931 150.728 230.488 153.937 231.442 157.06L238.136 155.014L244.831 152.969C243.412 148.326 241.186 143.848 238.243 139.537L232.461 143.483ZM238.136 155.014L235.695 148.454L220.417 154.138L222.858 160.699L225.299 167.259L240.577 161.575L238.136 155.014ZM222.858 160.699L229.53 158.58C228.464 155.222 226.943 152.05 224.988 149.076L219.139 152.921L213.29 156.767C214.557 158.695 215.517 160.708 216.186 162.817L222.858 160.699ZM219.139 152.921L225.071 149.206C222.979 145.865 220.305 143.05 217.077 140.818L213.096 146.576L209.115 152.334C210.751 153.465 212.106 154.88 213.206 156.637L219.139 152.921ZM213.096 146.576L217.333 141.004C213.935 138.42 209.933 136.894 205.59 136.21L204.501 143.125L203.412 150.039C205.89 150.43 207.619 151.205 208.859 152.148L213.096 146.576ZM204.501 143.125L205.59 136.21C199.896 135.313 194.034 135.743 189.325 139.17L193.445 144.829L197.564 150.489C198.045 150.139 199.553 149.432 203.412 150.039L204.501 143.125ZM193.445 144.829L189.452 139.08C185.41 141.886 182.747 145.877 181.97 150.813L188.885 151.902L195.8 152.991C195.943 152.079 196.32 151.355 197.437 150.579L193.445 144.829ZM188.885 151.902L181.97 150.813C181.324 154.918 181.973 158.924 183.863 162.621L190.096 159.434L196.329 156.248C195.775 155.165 195.617 154.15 195.8 152.991L188.885 151.902ZM190.096 159.434L184.036 162.939C185.995 166.326 188.987 169.33 192.521 172.037L196.777 166.479L201.033 160.922C198.328 158.851 196.865 157.158 196.155 155.93L190.096 159.434ZM196.777 166.479L192.521 172.037C196.029 174.724 200.503 177.516 205.832 180.422L209.183 174.276L212.534 168.131C207.562 165.419 203.764 163.014 201.033 160.922L196.777 166.479ZM209.183 174.276L205.845 180.429C208.344 181.785 210.837 183.416 213.323 185.337L217.603 179.798L221.882 174.258C218.847 171.913 215.728 169.863 212.522 168.124L209.183 174.276ZM217.603 179.798L213.397 185.393C215.692 187.118 217.7 189.159 219.433 191.539L225.092 187.419L230.752 183.3C228.214 179.814 225.23 176.773 221.809 174.202L217.603 179.798ZM225.092 187.419L219.515 191.649C221.097 193.736 222.248 196.094 222.962 198.784L229.728 196.989L236.494 195.194C235.327 190.796 233.388 186.774 230.67 183.19L225.092 187.419ZM229.728 196.989L223.008 198.948C223.699 201.322 223.891 204.275 223.31 207.964L230.225 209.053L237.14 210.142C237.971 204.865 237.831 199.775 236.448 195.03L229.728 196.989ZM230.225 209.053L223.31 207.964C222.702 211.828 221.449 214.942 219.682 217.474L225.421 221.481L231.16 225.489C234.294 221.002 236.244 215.831 237.14 210.142L230.225 209.053ZM225.421 221.481L219.682 217.474C217.8 220.169 215.506 222.287 212.763 223.892L216.299 229.933L219.835 235.974C224.354 233.33 228.141 229.813 231.16 225.489L225.421 221.481ZM216.299 229.933L212.875 223.828C210.002 225.439 206.814 226.556 203.26 227.15L204.413 234.054L205.567 240.959C210.629 240.113 215.365 238.482 219.723 236.039L216.299 229.933ZM204.413 234.054L203.06 227.186C199.664 227.855 196.185 227.919 192.584 227.352L191.495 234.267L190.406 241.182C195.577 241.996 200.71 241.918 205.766 240.922L204.413 234.054ZM191.495 234.267L192.584 227.352C187.459 226.545 182.99 224.831 179.079 222.261L175.235 228.11L171.39 233.96C177.074 237.695 183.445 240.086 190.406 241.182L191.495 234.267ZM175.235 228.11L179.212 222.35C175.211 219.587 171.892 216.273 169.211 212.389L163.45 216.366L157.69 220.343C161.353 225.649 165.889 230.164 171.257 233.871L175.235 228.11ZM163.45 216.366L169.211 212.389C166.429 208.36 164.424 204.207 163.142 199.921L156.435 201.927L149.729 203.933C151.457 209.71 154.128 215.183 157.69 220.343L163.45 216.366ZM156.435 201.927L159.48 208.23L173.75 201.338L170.705 195.035L167.661 188.732L153.391 195.624L156.435 201.927Z" fill="#2EC4B6" mask="url(#path-5-outside-3_655_50)"/>
</g>
<defs>
<clipPath id="clip0_655_50">
<rect width="251" height="251" fill="white"/>
</clipPath>
</defs>
</svg>
