<svg width="1357" height="1395" viewBox="0 0 1357 1395" fill="none" xmlns="http://www.w3.org/2000/svg">
<path d="M507.621 40.0057L659.086 0.370045C660.015 0.126904 660.989 0.110367 661.926 0.321822L812.358 34.275C814.378 34.7311 814.458 37.581 812.466 38.1492L662.032 81.0629C661.028 81.3493 659.967 81.3687 658.953 81.1192L507.649 43.8826C505.635 43.3869 505.614 40.5308 507.621 40.0057Z" fill="#FFFF00"/>
<path d="M429.464 60.7081L490.512 44.3974C491.488 44.1367 492.514 44.1266 493.495 44.3679L645.251 81.716C647.238 82.205 647.295 85.0091 645.33 85.5789L487.344 131.385C485.016 132.06 482.512 131.269 480.994 129.379L428.421 63.8924C427.516 62.7657 428.068 61.081 429.464 60.7081Z" fill="#FFFF00"/>
<path d="M674.943 81.5256L826.539 38.4153C827.498 38.1427 828.509 38.1132 829.482 38.3294L896.837 53.297C898.289 53.6198 898.893 55.3589 897.953 56.5125L840.958 126.483C839.463 128.318 837.028 129.103 834.743 128.486L674.969 85.3802C673.011 84.8519 672.992 82.0804 674.943 81.5256Z" fill="#FFFF00"/>
<path d="M249.391 107.744L418.72 63.4878C421.018 62.8873 423.454 63.6985 424.933 65.5568L477.086 131.094C477.986 132.226 477.425 133.91 476.025 134.275L304.382 178.989C302.033 179.601 299.545 178.736 298.082 176.798L248.301 110.885C247.443 109.748 248.013 108.104 249.391 107.744Z" fill="#FFFF00"/>
<path d="M554.749 115.801L634.197 93.0366C651.407 88.1054 669.635 87.9534 686.925 92.5969L766.732 114.031C798.866 122.661 811.257 161.674 789.991 187.265C781.433 197.564 768.782 203.584 755.392 203.729L567.883 205.768C554.328 205.915 541.402 200.059 532.574 189.772C510.802 164.401 522.611 125.01 554.749 115.801Z" fill="#FFFF00"/>
<path d="M844.562 127.969L901.644 57.892C903.087 56.1211 905.41 55.3229 907.636 55.8328L1080.1 95.3368C1081.49 95.6537 1082.11 97.2706 1081.3 98.4333L1032.78 167.736C1031.4 169.714 1028.97 170.669 1026.61 170.161L845.691 131.187C844.231 130.873 843.618 129.127 844.562 127.969Z" fill="#FFFF00"/>
<path d="M305.313 182.271L478.374 137.439C480.593 136.865 482.945 137.604 484.436 139.346L538.838 202.891C539.921 204.156 539.075 206.113 537.412 206.19L329.268 215.848C327.231 215.943 325.285 214.996 324.102 213.335L304.186 185.367C303.373 184.225 303.956 182.623 305.313 182.271Z" fill="#FFFF00"/>
<path d="M784.277 200.148L837.171 136.311C838.602 134.584 840.876 133.799 843.067 134.276L1025.02 173.852C1026.43 174.158 1027.06 175.806 1026.22 176.975L1011.76 197.059C1010.65 198.595 1008.89 199.52 1006.99 199.553L785.852 203.424C784.143 203.454 783.187 201.464 784.277 200.148Z" fill="#FFFF00"/>
<path d="M387.163 294.643L331.375 223.048C330.378 221.769 331.24 219.896 332.861 219.821L542.084 210.135C543.925 210.05 545.703 210.815 546.906 212.21L614.206 290.26C615.314 291.545 614.419 293.54 612.722 293.566L391.988 296.954C390.106 296.983 388.32 296.127 387.163 294.643Z" fill="#FFFF00"/>
<path d="M620.165 291.374L552.313 212.759C551.201 211.471 552.103 209.471 553.804 209.452L769.992 207.045C771.641 207.026 772.603 208.9 771.626 210.229L713.261 289.605C712.151 291.114 710.401 292.018 708.528 292.05L624.808 293.453C623.029 293.483 621.328 292.721 620.165 291.374Z" fill="#FFFF00"/>
<path d="M718.393 288.746L776.736 209.399C777.847 207.888 779.602 206.983 781.478 206.954L1003.57 203.56C1005.21 203.535 1006.18 205.375 1005.24 206.711L949.755 285.508C948.652 287.074 946.868 288.02 944.952 288.053L720.039 291.93C718.384 291.959 717.412 290.079 718.393 288.746Z" fill="#FFFF00"/>
<path d="M316.872 522.836L388.172 305.058C388.967 302.629 391.213 300.97 393.769 300.925L615.745 297.048C617.104 297.024 618.091 298.334 617.692 299.634L550.78 517.825C550.017 520.314 547.736 522.026 545.134 522.065L318.803 525.458C317.43 525.479 316.445 524.141 316.872 522.836Z" fill="#A8A8A8"/>
<path d="M554.303 519.874L621.224 301.17C621.985 298.683 624.26 296.97 626.86 296.926L706.672 295.573C709.256 295.53 711.578 297.146 712.434 299.584L788.579 516.379C789.032 517.668 788.088 519.021 786.722 519.041L556.246 522.459C554.889 522.479 553.906 521.172 554.303 519.874Z" fill="#A8A8A8"/>
<path d="M792.068 514.923L715.92 298.121C715.468 296.832 716.412 295.479 717.777 295.458L943.125 292.066C945.732 292.027 948.066 293.675 948.9 296.145L1022.12 512.902C1022.56 514.186 1021.61 515.521 1020.26 515.542L797.821 518.934C795.24 518.973 792.923 517.358 792.068 514.923Z" fill="#A8A8A8"/>
<path d="M292.225 606.365L313.747 533.729C314.493 531.213 316.786 529.473 319.41 529.434L545.25 526.041C546.608 526.021 547.591 527.331 547.192 528.629L481.809 741.368C481.41 742.667 479.859 743.198 478.747 742.417L294.528 612.979C292.42 611.498 291.493 608.836 292.225 606.365Z" fill="#A8A8A8"/>
<path d="M505.778 676.992L530.679 595.649C543.386 554.139 581.424 525.568 624.831 524.931L718.459 523.557C761.484 522.926 800.089 549.889 814.308 590.502L842.922 672.228C857.271 713.213 843.53 758.774 808.913 784.991L737.557 839.031C702.954 865.237 655.397 866.128 619.837 841.236L544.052 788.186C508.546 763.332 493.092 718.434 505.778 676.992Z" fill="#A8A8A8"/>
<path d="M869.094 735.908L795.417 525.123C794.966 523.834 795.913 522.482 797.279 522.464L1019.73 519.556C1022.28 519.522 1024.58 521.115 1025.45 523.522L1051.5 595.846C1052.39 598.317 1051.57 601.079 1049.48 602.664L872.189 736.843C871.107 737.662 869.542 737.189 869.094 735.908Z" fill="#A8A8A8"/>
<path d="M224.737 834.333L289.208 617.166C289.598 615.856 291.157 615.313 292.276 616.099L476.433 745.493C478.56 746.988 479.482 749.682 478.718 752.167L412.804 966.389C412.406 967.681 410.866 968.215 409.754 967.445L227.074 840.974C224.942 839.498 223.999 836.819 224.737 834.333Z" fill="#A8A8A8"/>
<path d="M946.091 955.399L872.943 746.128C872.083 743.668 872.909 740.934 874.988 739.362L1051.82 605.648C1052.9 604.832 1054.46 605.3 1054.91 606.575L1128.54 814.377C1129.41 816.834 1128.59 819.572 1126.52 821.152L949.191 956.33C948.11 957.154 946.539 956.682 946.091 955.399Z" fill="#A8A8A8"/>
<path d="M416.78 967.299L482.198 752.631C482.594 751.332 484.142 750.797 485.256 751.574L674.245 883.427C675.359 884.204 675.391 885.841 674.309 886.661L495.955 1021.88C493.893 1023.44 491.06 1023.51 488.928 1022.04L419.118 973.99C416.964 972.507 416.018 969.8 416.78 967.299Z" fill="#A8A8A8"/>
<path d="M684.689 883.84L866.312 746.159C867.393 745.339 868.959 745.811 869.408 747.091L942.56 955.89C943.419 958.341 942.603 961.067 940.539 962.643L873.484 1013.84C871.409 1015.42 868.547 1015.48 866.407 1013.99L684.752 887.074C683.64 886.296 683.608 884.66 684.689 883.84Z" fill="#A8A8A8"/>
<path d="M497.685 1025.34L676.019 890.139C678.094 888.566 680.946 888.511 683.081 890.002L864.752 1016.93C865.863 1017.71 865.896 1019.34 864.818 1020.16L686.489 1155.85C684.411 1157.43 681.549 1157.48 679.411 1155.98L497.745 1028.57C496.635 1027.8 496.605 1026.16 497.685 1025.34Z" fill="#A8A8A8"/>
<path d="M149.937 265.289L241.486 113.51C242.214 112.304 243.927 112.208 244.785 113.325L294.987 178.727C296.501 180.698 296.642 183.399 295.342 185.517L199.16 342.295C198.39 343.549 196.575 343.571 195.776 342.335L150.037 271.648C148.791 269.722 148.752 267.254 149.937 265.289Z" fill="#28B0FA"/>
<path d="M201.961 345.288L297.934 188.066C298.678 186.846 300.424 186.778 301.261 187.936L321.198 215.508C322.33 217.073 322.639 219.086 322.03 220.918L253.818 426.037C253.288 427.631 251.148 427.901 250.239 426.489L202.038 351.663C200.792 349.729 200.762 347.252 201.961 345.288Z" fill="#28B0FA"/>
<path d="M255.913 431.255L324.327 225.528C324.83 224.016 326.813 223.671 327.797 224.924L384.02 296.48C385.257 298.055 385.628 300.143 385.007 302.047L314.295 519.026C313.774 520.624 311.635 520.906 310.718 519.498L256.58 436.424C255.582 434.892 255.336 432.989 255.913 431.255Z" fill="#28B0FA"/>
<path d="M109.794 332.68L144.353 275.237C145.115 273.972 146.937 273.939 147.743 275.176L193.429 345.32C194.694 347.262 194.727 349.759 193.515 351.734L106.502 493.48C105.425 495.235 102.719 494.413 102.799 492.356L108.94 335.539C108.979 334.529 109.273 333.546 109.794 332.68Z" fill="#28B0FA"/>
<path d="M115.49 485.963L157.789 416.868C176.202 386.791 219.695 386.226 238.883 415.814C246.566 427.663 248.634 442.297 244.533 455.811L191.602 630.245C187.424 644.013 177.28 655.174 163.973 660.644C131.706 673.91 96.5337 649.343 97.8819 614.482L101.001 533.819C101.656 516.89 106.645 500.412 115.49 485.963Z" fill="#28B0FA"/>
<path d="M190.718 645.974L252.256 442.612C252.748 440.985 254.917 440.675 255.846 442.099L309.985 525.176C310.946 526.65 311.211 528.472 310.71 530.16L287.818 607.247C287.301 608.988 286.023 610.401 284.343 611.09L193.392 648.403C191.833 649.043 190.23 647.586 190.718 645.974Z" fill="#28B0FA"/>
<path d="M22.2818 478.203L100.984 347.661C102.052 345.89 104.777 346.705 104.696 348.771L98.5614 505.433C98.5211 506.46 98.2175 507.46 97.6797 508.337L17.5775 638.856C16.4954 640.619 13.7757 639.78 13.8752 637.714L21.4271 481.012C21.475 480.02 21.7686 479.054 22.2818 478.203Z" fill="#28B0FA"/>
<path d="M123.629 867.278L187.173 657.728C187.696 656.002 188.968 654.603 190.637 653.918L281.649 616.58C283.201 615.943 284.8 617.385 284.327 618.994L220.879 835.008C220.328 836.883 218.898 838.373 217.046 839L126.184 869.753C124.642 870.275 123.156 868.836 123.629 867.278Z" fill="#28B0FA"/>
<path d="M13.7974 652.696L93.9889 521.559C95.0645 519.8 97.7757 520.622 97.6936 522.682L91.1534 686.653C91.0599 688.997 89.609 691.072 87.4393 691.964L12.4153 722.802C11.0592 723.359 9.58419 722.316 9.6574 720.852L12.9237 655.527C12.9738 654.525 13.2742 653.552 13.7974 652.696Z" fill="#28B0FA"/>
<path d="M87.1192 881.457L94.3483 696.874C94.4406 694.516 95.9064 692.431 98.0938 691.546L179.619 658.57C181.178 657.939 182.772 659.397 182.283 661.006L118.85 869.704C118.313 871.469 116.995 872.889 115.275 873.555L89.8396 883.401C88.4977 883.92 87.0629 882.895 87.1192 881.457Z" fill="#28B0FA"/>
<path d="M0.142294 912.043L8.81616 731.82C8.9283 729.49 10.3807 727.436 12.5401 726.554L88.1235 695.675C89.4704 695.125 90.9353 696.151 90.8784 697.605L83.6602 881.91C83.5636 884.377 81.9656 886.533 79.6333 887.343L2.79615 914.029C1.45803 914.494 0.0741986 913.458 0.142294 912.043Z" fill="#28B0FA"/>
<path d="M1024.64 508.964L951.969 293.373C951.36 291.567 951.645 289.578 952.739 288.016L1008.25 208.716C1009.19 207.378 1011.25 207.667 1011.78 209.212L1083.08 416.314C1083.66 418.014 1083.45 419.887 1082.51 421.418L1028.24 509.375C1027.35 510.817 1025.18 510.569 1024.64 508.964Z" fill="#FF93A8"/>
<path d="M1085.13 410.993L1014.47 204.821C1013.86 203.044 1014.12 201.084 1015.17 199.526L1029.34 178.461C1030.14 177.285 1031.87 177.283 1032.66 178.459L1134.83 329.792C1136.15 331.745 1136.21 334.289 1134.97 336.296L1088.72 411.393C1087.84 412.832 1085.67 412.591 1085.13 410.993Z" fill="#FF93A8"/>
<path d="M1137.76 326.931L1035.83 176.437C1034.43 174.369 1034.45 171.65 1035.9 169.61L1084.8 100.404C1085.62 99.2511 1087.34 99.2829 1088.11 100.466L1184.93 248.822C1186.19 250.763 1186.23 253.26 1185.02 255.236L1141.12 326.855C1140.36 328.094 1138.58 328.135 1137.76 326.931Z" fill="#FF93A8"/>
<path d="M1055.55 596.802L1028.46 520.216C1027.85 518.499 1028.06 516.6 1029.02 515.052L1083.28 427.585C1084.17 426.151 1086.32 426.395 1086.87 427.99L1156.66 631.582C1157.2 633.165 1155.67 634.675 1154.1 634.115L1059.2 600.457C1057.49 599.851 1056.15 598.509 1055.55 596.802Z" fill="#FF93A8"/>
<path d="M1154.91 615.3L1095.43 441.24C1090.73 427.479 1092.45 412.335 1100.11 399.979C1118.63 370.137 1161.74 369.251 1181.46 398.307L1225.97 463.859C1235.82 478.364 1241.68 495.205 1242.96 512.69L1249.08 596.088C1251.63 630.941 1217.57 656.955 1184.62 645.314C1170.65 640.379 1159.7 629.321 1154.91 615.3Z" fill="#FF93A8"/>
<path d="M1236.3 472.781L1143.67 335.711C1142.35 333.757 1142.3 331.209 1143.53 329.202L1187.35 258.182C1188.12 256.934 1189.92 256.911 1190.72 258.138L1227.65 314.704C1228.21 315.554 1228.54 316.531 1228.61 317.544L1239.95 471.514C1240.1 473.558 1237.44 474.479 1236.3 472.781Z" fill="#FF93A8"/>
<path d="M1132.52 815.211L1059.39 607.951C1058.83 606.365 1060.36 604.838 1061.95 605.4L1156.77 639.032C1158.49 639.643 1159.85 641.009 1160.44 642.74L1230.2 846.205C1230.73 847.766 1229.25 849.267 1227.69 848.755L1136.31 818.918C1134.54 818.339 1133.14 816.969 1132.52 815.211Z" fill="#FF93A8"/>
<path d="M1329.23 610.187L1245.4 486.325C1244.81 485.457 1244.46 484.45 1244.38 483.405L1233.07 330.751C1232.92 328.689 1235.62 327.779 1236.74 329.511L1319.67 456.728C1320.21 457.563 1320.54 458.52 1320.62 459.514L1332.88 608.902C1333.05 610.953 1330.38 611.891 1329.23 610.187Z" fill="#FF93A8"/>
<path d="M1235.07 848.808L1165.35 645.916C1164.8 644.333 1166.33 642.823 1167.9 643.38L1250.81 672.694C1253.05 673.487 1254.61 675.534 1254.79 677.908L1268.27 860.4C1268.38 861.851 1266.95 862.927 1265.58 862.423L1238.67 852.486C1236.98 851.862 1235.66 850.512 1235.07 848.808Z" fill="#FF93A8"/>
<path d="M1338.07 699.96L1261.69 672.812C1259.45 672.015 1257.89 669.967 1257.72 667.593L1245.54 499.948C1245.39 497.907 1248.04 496.987 1249.19 498.681L1333.62 623.203C1334.2 624.053 1334.55 625.038 1334.63 626.062L1340.74 697.906C1340.86 699.355 1339.44 700.447 1338.07 699.96Z" fill="#FF93A8"/>
<path d="M1353.62 892.528L1275.78 866.276C1273.49 865.503 1271.89 863.43 1271.72 861.017L1258.72 678.557C1258.62 677.117 1260.03 676.046 1261.39 676.532L1337.36 703.697C1339.58 704.491 1341.12 706.508 1341.32 708.855L1356.25 890.469C1356.37 891.902 1354.98 892.988 1353.62 892.528Z" fill="#FF93A8"/>
<path d="M127.244 873.233L218.133 842.47C219.936 841.86 221.922 842.142 223.484 843.229L405.039 969.591C406.423 970.555 406.067 972.694 404.444 973.156L307.745 1000.72C306.008 1001.21 304.141 1000.9 302.661 999.863L126.738 876.766C125.395 875.826 125.691 873.758 127.244 873.233Z" fill="#FF8930"/>
<path d="M492.165 1132.17L312.464 1006.42C311.081 1005.46 311.445 1003.31 313.071 1002.86L409.815 975.752C411.518 975.275 413.344 975.573 414.806 976.567L488.019 1026.31C489.581 1027.38 490.552 1029.11 490.641 1031L495.309 1130.43C495.387 1132.09 493.526 1133.12 492.165 1132.17Z" fill="#FF8930"/>
<path d="M498.875 1134.04L494.672 1034.56C494.602 1032.9 496.466 1031.89 497.822 1032.84L678.458 1160.21C680.052 1161.33 681 1163.16 681 1165.11V1260.66C681 1262.28 679.178 1263.22 677.852 1262.3L501.427 1138.7C499.897 1137.63 498.954 1135.91 498.875 1134.04Z" fill="#FF8930"/>
<path d="M205.008 1025.57L89.824 890.145C88.9321 889.096 89.3417 887.481 90.6255 886.984L116.018 877.154C117.882 876.433 119.983 876.687 121.621 877.832L296.536 1000.08C297.92 1001.05 297.557 1003.19 295.931 1003.64L211.202 1027.46C208.946 1028.09 206.527 1027.36 205.008 1025.57Z" fill="#FF8930"/>
<path d="M317.974 1153.41L260.002 1087.95C236.925 1061.9 249.139 1020.67 282.685 1011.4C296.187 1007.66 310.65 1010.14 322.142 1018.15L476.002 1125.41C488.287 1133.97 495.862 1147.79 496.479 1162.75C497.904 1197.29 463.401 1221.93 431.19 1209.38L356.52 1180.28C341.72 1174.51 328.506 1165.3 317.974 1153.41Z" fill="#FF8930"/>
<path d="M503.333 1233.51L499.669 1146.04C499.6 1144.39 501.457 1143.37 502.814 1144.32L678.485 1267.24C680.064 1268.35 681.017 1270.14 681.044 1272.07L681.458 1300.58C681.478 1301.99 680.081 1302.97 678.763 1302.49L507.242 1238.89C504.975 1238.05 503.434 1235.93 503.333 1233.51Z" fill="#FF8930"/>
<path d="M117.505 1050.17L3.46466 920.73C2.52613 919.665 2.96536 917.988 4.30562 917.52L80.6147 890.857C82.956 890.039 85.5592 890.746 87.1654 892.636L201.481 1027.12C202.425 1028.23 201.902 1029.95 200.499 1030.34L123.633 1051.98C121.412 1052.6 119.03 1051.9 117.505 1050.17Z" fill="#FF8930"/>
<path d="M507.319 1324.57L503.639 1244.51C503.573 1243.08 504.987 1242.05 506.329 1242.55L677.579 1305.81C679.935 1306.68 681.5 1308.93 681.5 1311.44V1392.09C681.5 1393.5 680.095 1394.46 678.786 1393.96L511.171 1329.9C508.942 1329.05 507.429 1326.96 507.319 1324.57Z" fill="#FF8930"/>
<path d="M175.948 1116.3L125.103 1058.4C124.13 1057.29 124.651 1055.54 126.072 1055.15L202.399 1034C204.603 1033.39 206.963 1034.08 208.484 1035.79L321.931 1163.3C323.299 1164.84 321.733 1167.19 319.787 1166.52L178.508 1118.02C177.52 1117.68 176.637 1117.09 175.948 1116.3Z" fill="#FF8930"/>
<path d="M443.494 1303.29L343.957 1183.47C342.637 1181.88 344.3 1179.57 346.224 1180.33L496.35 1239.07C498.568 1239.94 500.062 1242.04 500.158 1244.42L503.377 1323.97C503.435 1325.4 502.008 1326.43 500.666 1325.92L445.971 1305.06C445.007 1304.69 444.153 1304.08 443.494 1303.29Z" fill="#FF8930"/>
<path d="M289.516 1244.88L187.001 1128.67C185.643 1127.13 187.209 1124.79 189.151 1125.46L330.401 1173.95C331.447 1174.31 332.373 1174.95 333.077 1175.8L432.188 1295.68C433.496 1297.26 431.858 1299.55 429.938 1298.82L291.89 1246.53C290.977 1246.18 290.162 1245.62 289.516 1244.88Z" fill="#FF8930"/>
<path d="M685 1260V1164.97C685 1163.1 685.874 1161.33 687.363 1160.2L864.69 1025.02C866.024 1024.01 867.941 1024.98 867.902 1026.66L865.569 1125.59C865.525 1127.43 864.642 1129.14 863.172 1130.25L688.201 1261.6C686.882 1262.59 685 1261.65 685 1260Z" fill="#88D33A"/>
<path d="M1046.67 992.003L872.318 1123.01C870.979 1124.01 869.07 1123.03 869.117 1121.35L871.919 1022.37C871.97 1020.56 872.842 1018.86 874.291 1017.76L944.192 964.75C945.65 963.644 947.533 963.265 949.306 963.718L1045.96 988.467C1047.59 988.883 1048.01 990.995 1046.67 992.003Z" fill="#88D33A"/>
<path d="M1050.69 986.263L954.47 961.041C952.858 960.618 952.44 958.524 953.766 957.515L1130 823.406C1131.56 822.212 1133.62 821.865 1135.49 822.477L1226.86 852.31C1228.39 852.812 1228.73 854.835 1227.44 855.808L1055.82 985.249C1054.36 986.355 1052.46 986.728 1050.69 986.263Z" fill="#88D33A"/>
<path d="M685.457 1300.08L685.045 1272.05C685.017 1270.13 685.904 1268.32 687.434 1267.17L862.191 1135.49C863.528 1134.49 865.437 1135.47 865.394 1137.14L863.1 1227.07C863.039 1229.46 861.57 1231.58 859.358 1232.48L688.209 1301.9C686.905 1302.43 685.478 1301.48 685.457 1300.08Z" fill="#88D33A"/>
<path d="M1012.8 1170.04L936.181 1201.18C903.298 1214.54 867.503 1189.79 868.399 1154.31C868.779 1139.27 876.01 1125.23 888.033 1116.19L1035.61 1005.21C1047.55 996.225 1062.92 993.15 1077.4 996.845C1111.85 1005.64 1125.93 1046.92 1104.03 1074.93L1053.92 1139C1043.16 1152.76 1028.98 1163.46 1012.8 1170.04Z" fill="#88D33A"/>
<path d="M1149.2 1011.52L1062.51 989.04C1060.89 988.62 1060.47 986.514 1061.81 985.507L1232.38 856.971C1234.01 855.743 1236.16 855.427 1238.07 856.135L1264.92 866.048C1266.19 866.518 1266.64 868.094 1265.8 869.161L1155.43 1009.42C1153.95 1011.29 1151.51 1012.11 1149.2 1011.52Z" fill="#88D33A"/>
<path d="M685.5 1391.51V1311.36C685.5 1308.92 686.977 1306.73 689.236 1305.81L860.158 1236.16C861.496 1235.61 862.953 1236.62 862.912 1238.07L860.612 1318.12C860.544 1320.48 859.095 1322.58 856.911 1323.49L688.265 1393.35C686.949 1393.9 685.5 1392.93 685.5 1391.51Z" fill="#88D33A"/>
<path d="M1238.78 1034.54L1159.96 1014.26C1158.57 1013.9 1158 1012.23 1158.89 1011.09L1268.37 871.36C1269.94 869.349 1272.62 868.556 1275.04 869.386L1352.78 896.068C1354.1 896.52 1354.57 898.146 1353.69 899.224L1244.93 1032.53C1243.45 1034.34 1241.05 1035.13 1238.78 1034.54Z" fill="#88D33A"/>
<path d="M932.556 1292.1L867.34 1319.31C866.005 1319.87 864.537 1318.87 864.571 1317.42L866.409 1237.44C866.464 1235.05 867.933 1232.92 870.148 1232.02L1025.52 1168.84C1027.42 1168.06 1029.12 1170.31 1027.85 1171.92L934.966 1290.27C934.333 1291.08 933.503 1291.71 932.556 1292.1Z" fill="#88D33A"/>
<path d="M1190.59 1097.57L1051.46 1154.17C1049.56 1154.94 1047.87 1152.7 1049.13 1151.08L1152.08 1019.59C1153.55 1017.71 1155.99 1016.88 1158.3 1017.48L1236.96 1037.72C1238.38 1038.08 1238.94 1039.79 1238.01 1040.92L1192.97 1095.82C1192.33 1096.6 1191.51 1097.2 1190.59 1097.57Z" fill="#88D33A"/>
<path d="M1082.6 1230.08L947.562 1286.07C945.66 1286.86 943.951 1284.61 945.223 1282.99L1038.52 1164.25C1039.16 1163.43 1040.01 1162.79 1040.97 1162.4L1179.76 1105.94C1181.68 1105.16 1183.37 1107.45 1182.07 1109.06L1084.96 1228.33C1084.33 1229.1 1083.52 1229.7 1082.6 1230.08Z" fill="#88D33A"/>
</svg>
