<svg width="210" height="173" viewBox="0 0 210 173" fill="none" xmlns="http://www.w3.org/2000/svg">
<path d="M3.744 0.399998H9.408V34H3.744V0.399998ZM7.104 5.392V0.399998H13.872C16.304 0.399998 18.416 0.831998 20.208 1.696C22.032 2.528 23.44 3.728 24.432 5.296C25.424 6.832 25.92 8.672 25.92 10.816C25.92 12.96 25.424 14.816 24.432 16.384C23.44 17.952 22.032 19.168 20.208 20.032C18.416 20.864 16.304 21.28 13.872 21.28H7.104V16.288H13.872C15.824 16.288 17.392 15.824 18.576 14.896C19.76 13.968 20.352 12.608 20.352 10.816C20.352 9.024 19.76 7.68 18.576 6.784C17.392 5.856 15.824 5.392 13.872 5.392H7.104ZM34.998 34V29.008H51.942V34H34.998ZM34.998 5.392V0.399998H51.942V5.392H34.998ZM34.998 18.448V13.552H50.982V18.448H34.998ZM31.494 0.399998H37.062V34H31.494V0.399998Z" fill="#FFE863"/>
<path d="M62.4199 34V29.008H79.3639V34H62.4199ZM62.4199 5.392V0.399998H79.3639V5.392H62.4199ZM62.4199 18.448V13.552H78.4039V18.448H62.4199ZM58.9159 0.399998H64.4839V34H58.9159V0.399998ZM86.3378 0.399998H92.0018V28.912H105.346V34H86.3378V0.399998Z" fill="#FDFFFC"/>
<path d="M0.384 74.632V69.4H23.808V74.632H14.928V103H9.216V74.632H0.384ZM30.1875 87.592V82.36H54.1395V87.592H30.1875ZM50.4915 69.4H56.1555V103H50.4915V69.4ZM27.9315 69.4H33.5955V103H27.9315V69.4Z" fill="#FB596D"/>
<path d="M67.1543 103V98.008H84.0983V103H67.1543ZM67.1543 74.392V69.4H84.0983V74.392H67.1543ZM67.1543 87.448V82.552H83.1383V87.448H67.1543ZM63.6503 69.4H69.2183V103H63.6503V69.4Z" fill="#FFB044"/>
<path d="M5.952 161.2C6.688 162.48 7.472 163.616 8.304 164.608C9.168 165.568 10.112 166.32 11.136 166.864C12.16 167.376 13.312 167.632 14.592 167.632C16.128 167.632 17.376 167.216 18.336 166.384C19.296 165.552 19.776 164.48 19.776 163.168C19.776 161.92 19.472 160.928 18.864 160.192C18.256 159.424 17.408 158.784 16.32 158.272C15.264 157.728 14.032 157.2 12.624 156.688C11.792 156.4 10.864 156.016 9.84 155.536C8.816 155.024 7.84 154.4 6.912 153.664C5.984 152.896 5.216 151.968 4.608 150.88C4 149.76 3.696 148.416 3.696 146.848C3.696 145.056 4.16 143.488 5.088 142.144C6.016 140.768 7.264 139.712 8.832 138.976C10.432 138.208 12.24 137.824 14.256 137.824C16.24 137.824 17.968 138.176 19.44 138.88C20.912 139.584 22.144 140.48 23.136 141.568C24.16 142.656 24.96 143.792 25.536 144.976L20.928 147.568C20.512 146.736 19.984 145.968 19.344 145.264C18.704 144.528 17.952 143.952 17.088 143.536C16.256 143.088 15.28 142.864 14.16 142.864C12.592 142.864 11.44 143.232 10.704 143.968C9.968 144.672 9.6 145.504 9.6 146.464C9.6 147.328 9.856 148.112 10.368 148.816C10.912 149.488 11.744 150.128 12.864 150.736C13.984 151.344 15.44 151.968 17.232 152.608C18.224 152.96 19.216 153.408 20.208 153.952C21.232 154.496 22.16 155.184 22.992 156.016C23.824 156.816 24.48 157.76 24.96 158.848C25.472 159.936 25.728 161.216 25.728 162.688C25.728 164.256 25.424 165.664 24.816 166.912C24.208 168.16 23.376 169.216 22.32 170.08C21.264 170.912 20.064 171.552 18.72 172C17.408 172.48 16.032 172.72 14.592 172.72C12.608 172.72 10.768 172.336 9.072 171.568C7.408 170.768 5.952 169.712 4.704 168.4C3.456 167.088 2.464 165.664 1.728 164.128L5.952 161.2ZM28.1809 143.632V138.4H51.6049V143.632H42.7249V172H37.0129V143.632H28.1809ZM55.7284 138.4H61.4404V172H55.7284V138.4ZM73.1231 155.2C73.1231 157.568 73.6511 159.648 74.7071 161.44C75.7951 163.232 77.2031 164.624 78.9311 165.616C80.6911 166.576 82.5951 167.056 84.6431 167.056C86.2431 167.056 87.6831 166.848 88.9631 166.432C90.2431 166.016 91.3951 165.456 92.4191 164.752C93.4751 164.016 94.3871 163.2 95.1551 162.304V169.024C93.7471 170.176 92.2271 171.056 90.5951 171.664C88.9631 172.272 86.9151 172.576 84.4511 172.576C81.9871 172.576 79.6831 172.16 77.5391 171.328C75.4271 170.496 73.5871 169.296 72.0191 167.728C70.4511 166.16 69.2191 164.32 68.3231 162.208C67.4591 160.064 67.0271 157.728 67.0271 155.2C67.0271 152.672 67.4591 150.352 68.3231 148.24C69.2191 146.096 70.4511 144.24 72.0191 142.672C73.5871 141.104 75.4271 139.904 77.5391 139.072C79.6831 138.24 81.9871 137.824 84.4511 137.824C86.9151 137.824 88.9631 138.128 90.5951 138.736C92.2271 139.344 93.7471 140.224 95.1551 141.376V148.096C94.3871 147.2 93.4751 146.4 92.4191 145.696C91.3951 144.96 90.2431 144.384 88.9631 143.968C87.6831 143.552 86.2431 143.344 84.6431 143.344C82.5951 143.344 80.6911 143.84 78.9311 144.832C77.2031 145.792 75.7951 147.168 74.7071 148.96C73.6511 150.72 73.1231 152.8 73.1231 155.2Z" fill="#2EC4B6"/>
<path d="M102.135 138.4H107.943V172H102.135V138.4ZM120.423 138.4H127.239L113.079 154.144L127.959 172H120.999L106.215 154.288L120.423 138.4ZM135.357 172V167.008H152.301V172H135.357ZM135.357 143.392V138.4H152.301V143.392H135.357ZM135.357 156.448V151.552H151.341V156.448H135.357ZM131.853 138.4H137.421V172H131.853V138.4ZM166.187 155.968H172.331L183.707 172H176.891L166.187 155.968ZM159.275 138.4H164.939V172H159.275V138.4ZM162.635 143.296V138.4H169.643C172.075 138.4 174.187 138.832 175.979 139.696C177.803 140.56 179.211 141.776 180.203 143.344C181.195 144.88 181.691 146.704 181.691 148.816C181.691 150.928 181.195 152.768 180.203 154.336C179.211 155.904 177.803 157.12 175.979 157.984C174.187 158.848 172.075 159.28 169.643 159.28H162.635V154.624H169.403C170.683 154.624 171.803 154.4 172.763 153.952C173.755 153.504 174.523 152.864 175.067 152.032C175.611 151.168 175.883 150.144 175.883 148.96C175.883 147.744 175.611 146.72 175.067 145.888C174.523 145.056 173.755 144.416 172.763 143.968C171.803 143.52 170.683 143.296 169.403 143.296H162.635ZM190.03 161.2C190.766 162.48 191.55 163.616 192.382 164.608C193.246 165.568 194.19 166.32 195.214 166.864C196.238 167.376 197.39 167.632 198.67 167.632C200.206 167.632 201.454 167.216 202.414 166.384C203.374 165.552 203.854 164.48 203.854 163.168C203.854 161.92 203.55 160.928 202.942 160.192C202.334 159.424 201.486 158.784 200.398 158.272C199.342 157.728 198.11 157.2 196.702 156.688C195.87 156.4 194.942 156.016 193.918 155.536C192.894 155.024 191.918 154.4 190.99 153.664C190.062 152.896 189.294 151.968 188.686 150.88C188.078 149.76 187.774 148.416 187.774 146.848C187.774 145.056 188.238 143.488 189.166 142.144C190.094 140.768 191.342 139.712 192.91 138.976C194.51 138.208 196.318 137.824 198.334 137.824C200.318 137.824 202.046 138.176 203.518 138.88C204.99 139.584 206.222 140.48 207.214 141.568C208.238 142.656 209.038 143.792 209.614 144.976L205.006 147.568C204.59 146.736 204.062 145.968 203.422 145.264C202.782 144.528 202.03 143.952 201.166 143.536C200.334 143.088 199.358 142.864 198.238 142.864C196.67 142.864 195.518 143.232 194.782 143.968C194.046 144.672 193.678 145.504 193.678 146.464C193.678 147.328 193.934 148.112 194.446 148.816C194.99 149.488 195.822 150.128 196.942 150.736C198.062 151.344 199.518 151.968 201.31 152.608C202.302 152.96 203.294 153.408 204.286 153.952C205.31 154.496 206.238 155.184 207.07 156.016C207.902 156.816 208.558 157.76 209.038 158.848C209.55 159.936 209.806 161.216 209.806 162.688C209.806 164.256 209.502 165.664 208.894 166.912C208.286 168.16 207.454 169.216 206.398 170.08C205.342 170.912 204.142 171.552 202.798 172C201.486 172.48 200.11 172.72 198.67 172.72C196.686 172.72 194.846 172.336 193.15 171.568C191.486 170.768 190.03 169.712 188.782 168.4C187.534 167.088 186.542 165.664 185.806 164.128L190.03 161.2Z" fill="#0496FF"/>
</svg>
