<svg width="1411" height="214" viewBox="0 0 1411 214" fill="none" xmlns="http://www.w3.org/2000/svg">
<mask id="path-1-outside-1_1068_56" maskUnits="userSpaceOnUse" x="320" y="47" width="273" height="118" fill="black">
<rect fill="white" x="320" y="47" width="273" height="118"/>
<path d="M327.184 70.532V54.4H399.408V70.532H372.028V158H354.416V70.532H327.184ZM419.078 110.492V94.36H492.93V110.492H419.078ZM481.682 54.4H499.146V158H481.682V54.4ZM412.122 54.4H429.586V158H412.122V54.4ZM533.059 158V142.608H585.303V158H533.059ZM533.059 69.792V54.4H585.303V69.792H533.059ZM533.059 110.048V94.952H582.343V110.048H533.059ZM522.255 54.4H539.423V158H522.255V54.4Z"/>
</mask>
<path d="M327.184 70.532H320.184V77.532H327.184V70.532ZM327.184 54.4V47.4H320.184V54.4H327.184ZM399.408 54.4H406.408V47.4H399.408V54.4ZM399.408 70.532V77.532H406.408V70.532H399.408ZM372.028 70.532V63.532H365.028V70.532H372.028ZM372.028 158V165H379.028V158H372.028ZM354.416 158H347.416V165H354.416V158ZM354.416 70.532H361.416V63.532H354.416V70.532ZM327.184 70.532H334.184V54.4H327.184H320.184V70.532H327.184ZM327.184 54.4V61.4H399.408V54.4V47.4H327.184V54.4ZM399.408 54.4H392.408V70.532H399.408H406.408V54.4H399.408ZM399.408 70.532V63.532H372.028V70.532V77.532H399.408V70.532ZM372.028 70.532H365.028V158H372.028H379.028V70.532H372.028ZM372.028 158V151H354.416V158V165H372.028V158ZM354.416 158H361.416V70.532H354.416H347.416V158H354.416ZM354.416 70.532V63.532H327.184V70.532V77.532H354.416V70.532ZM419.078 110.492H412.078V117.492H419.078V110.492ZM419.078 94.36V87.36H412.078V94.36H419.078ZM492.93 94.36H499.93V87.36H492.93V94.36ZM492.93 110.492V117.492H499.93V110.492H492.93ZM481.682 54.4V47.4H474.682V54.4H481.682ZM499.146 54.4H506.146V47.4H499.146V54.4ZM499.146 158V165H506.146V158H499.146ZM481.682 158H474.682V165H481.682V158ZM412.122 54.4V47.4H405.122V54.4H412.122ZM429.586 54.4H436.586V47.4H429.586V54.4ZM429.586 158V165H436.586V158H429.586ZM412.122 158H405.122V165H412.122V158ZM419.078 110.492H426.078V94.36H419.078H412.078V110.492H419.078ZM419.078 94.36V101.36H492.93V94.36V87.36H419.078V94.36ZM492.93 94.36H485.93V110.492H492.93H499.93V94.36H492.93ZM492.93 110.492V103.492H419.078V110.492V117.492H492.93V110.492ZM481.682 54.4V61.4H499.146V54.4V47.4H481.682V54.4ZM499.146 54.4H492.146V158H499.146H506.146V54.4H499.146ZM499.146 158V151H481.682V158V165H499.146V158ZM481.682 158H488.682V54.4H481.682H474.682V158H481.682ZM412.122 54.4V61.4H429.586V54.4V47.4H412.122V54.4ZM429.586 54.4H422.586V158H429.586H436.586V54.4H429.586ZM429.586 158V151H412.122V158V165H429.586V158ZM412.122 158H419.122V54.4H412.122H405.122V158H412.122ZM533.059 158H526.059V165H533.059V158ZM533.059 142.608V135.608H526.059V142.608H533.059ZM585.303 142.608H592.303V135.608H585.303V142.608ZM585.303 158V165H592.303V158H585.303ZM533.059 69.792H526.059V76.792H533.059V69.792ZM533.059 54.4V47.4H526.059V54.4H533.059ZM585.303 54.4H592.303V47.4H585.303V54.4ZM585.303 69.792V76.792H592.303V69.792H585.303ZM533.059 110.048H526.059V117.048H533.059V110.048ZM533.059 94.952V87.952H526.059V94.952H533.059ZM582.343 94.952H589.343V87.952H582.343V94.952ZM582.343 110.048V117.048H589.343V110.048H582.343ZM522.255 54.4V47.4H515.255V54.4H522.255ZM539.423 54.4H546.423V47.4H539.423V54.4ZM539.423 158V165H546.423V158H539.423ZM522.255 158H515.255V165H522.255V158ZM533.059 158H540.059V142.608H533.059H526.059V158H533.059ZM533.059 142.608V149.608H585.303V142.608V135.608H533.059V142.608ZM585.303 142.608H578.303V158H585.303H592.303V142.608H585.303ZM585.303 158V151H533.059V158V165H585.303V158ZM533.059 69.792H540.059V54.4H533.059H526.059V69.792H533.059ZM533.059 54.4V61.4H585.303V54.4V47.4H533.059V54.4ZM585.303 54.4H578.303V69.792H585.303H592.303V54.4H585.303ZM585.303 69.792V62.792H533.059V69.792V76.792H585.303V69.792ZM533.059 110.048H540.059V94.952H533.059H526.059V110.048H533.059ZM533.059 94.952V101.952H582.343V94.952V87.952H533.059V94.952ZM582.343 94.952H575.343V110.048H582.343H589.343V94.952H582.343ZM582.343 110.048V103.048H533.059V110.048V117.048H582.343V110.048ZM522.255 54.4V61.4H539.423V54.4V47.4H522.255V54.4ZM539.423 54.4H532.423V158H539.423H546.423V54.4H539.423ZM539.423 158V151H522.255V158V165H539.423V158ZM522.255 158H529.255V54.4H522.255H515.255V158H522.255Z" fill="#50B6FF" mask="url(#path-1-outside-1_1068_56)"/>
<mask id="path-3-outside-2_1068_56" maskUnits="userSpaceOnUse" x="4" y="47" width="328" height="118" fill="black">
<rect fill="white" x="4" y="47" width="328" height="118"/>
<path d="M11.544 54.4H29.008V158H11.544V54.4ZM21.904 69.792V54.4H42.772C50.2707 54.4 56.7827 55.732 62.308 58.396C67.932 60.9613 72.2733 64.6613 75.332 69.496C78.3907 74.232 79.92 79.9053 79.92 86.516C79.92 93.1267 78.3907 98.8493 75.332 103.684C72.2733 108.519 67.932 112.268 62.308 114.932C56.7827 117.497 50.2707 118.78 42.772 118.78H21.904V103.388H42.772C48.7907 103.388 53.6253 101.957 57.276 99.096C60.9267 96.2347 62.752 92.0413 62.752 86.516C62.752 80.9907 60.9267 76.8467 57.276 74.084C53.6253 71.2227 48.7907 69.792 42.772 69.792H21.904ZM107.911 158V142.608H160.155V158H107.911ZM107.911 69.792V54.4H160.155V69.792H107.911ZM107.911 110.048V94.952H157.195V110.048H107.911ZM97.1065 54.4H114.275V158H97.1065V54.4ZM192.461 158V142.608H244.705V158H192.461ZM192.461 69.792V54.4H244.705V69.792H192.461ZM192.461 110.048V94.952H241.745V110.048H192.461ZM181.657 54.4H198.825V158H181.657V54.4ZM266.208 54.4H283.672V142.312H324.816V158H266.208V54.4Z"/>
</mask>
<path d="M11.544 54.4V47.4H4.544V54.4H11.544ZM29.008 54.4H36.008V47.4H29.008V54.4ZM29.008 158V165H36.008V158H29.008ZM11.544 158H4.544V165H11.544V158ZM21.904 69.792H14.904V76.792H21.904V69.792ZM21.904 54.4V47.4H14.904V54.4H21.904ZM62.308 58.396L59.2679 64.7014L59.3351 64.7338L59.403 64.7647L62.308 58.396ZM75.332 69.496L69.4165 73.2385L69.434 73.2662L69.4517 73.2937L75.332 69.496ZM75.332 103.684L69.4165 99.9415V99.9415L75.332 103.684ZM62.308 114.932L65.2558 121.281L65.2802 121.27L65.3046 121.258L62.308 114.932ZM21.904 118.78H14.904V125.78H21.904V118.78ZM21.904 103.388V96.388H14.904V103.388H21.904ZM57.276 99.096L52.9578 93.5866V93.5866L57.276 99.096ZM57.276 74.084L52.9578 79.5934L53.0046 79.63L53.0519 79.6658L57.276 74.084ZM11.544 54.4V61.4H29.008V54.4V47.4H11.544V54.4ZM29.008 54.4H22.008V158H29.008H36.008V54.4H29.008ZM29.008 158V151H11.544V158V165H29.008V158ZM11.544 158H18.544V54.4H11.544H4.544V158H11.544ZM21.904 69.792H28.904V54.4H21.904H14.904V69.792H21.904ZM21.904 54.4V61.4H42.772V54.4V47.4H21.904V54.4ZM42.772 54.4V61.4C49.4478 61.4 54.8781 62.5849 59.2679 64.7014L62.308 58.396L65.3481 52.0906C58.6872 48.8791 51.0935 47.4 42.772 47.4V54.4ZM62.308 58.396L59.403 64.7647C63.8937 66.8131 67.1437 69.646 69.4165 73.2385L75.332 69.496L81.2476 65.7535C77.403 59.6766 71.9703 55.1095 65.213 52.0273L62.308 58.396ZM75.332 69.496L69.4517 73.2937C71.6608 76.7141 72.92 81.0157 72.92 86.516H79.92H86.92C86.92 78.7949 85.1206 71.7498 81.2123 65.6983L75.332 69.496ZM79.92 86.516H72.92C72.92 92.0121 71.662 96.392 69.4165 99.9415L75.332 103.684L81.2476 107.426C85.1193 101.307 86.92 94.2412 86.92 86.516H79.92ZM75.332 103.684L69.4165 99.9415C67.1285 103.558 63.8467 106.458 59.3114 108.606L62.308 114.932L65.3046 121.258C72.0173 118.078 77.4182 113.479 81.2476 107.426L75.332 103.684ZM62.308 114.932L59.3602 108.583C54.9463 110.632 49.4822 111.78 42.772 111.78V118.78V125.78C51.0592 125.78 58.619 124.362 65.2558 121.281L62.308 114.932ZM42.772 118.78V111.78H21.904V118.78V125.78H42.772V118.78ZM21.904 118.78H28.904V103.388H21.904H14.904V118.78H21.904ZM21.904 103.388V110.388H42.772V103.388V96.388H21.904V103.388ZM42.772 103.388V110.388C49.8867 110.388 56.3867 108.687 61.5942 104.605L57.276 99.096L52.9578 93.5866C50.864 95.2277 47.6946 96.388 42.772 96.388V103.388ZM57.276 99.096L61.5942 104.605C67.2694 100.157 69.752 93.7325 69.752 86.516H62.752H55.752C55.752 90.3501 54.584 92.3121 52.9578 93.5866L57.276 99.096ZM62.752 86.516H69.752C69.752 79.3062 67.2682 72.8672 61.5001 68.5022L57.276 74.084L53.0519 79.6658C54.5852 80.8261 55.752 82.6752 55.752 86.516H62.752ZM57.276 74.084L61.5942 68.5746C56.3867 64.4931 49.8867 62.792 42.772 62.792V69.792V76.792C47.6946 76.792 50.864 77.9523 52.9578 79.5934L57.276 74.084ZM42.772 69.792V62.792H21.904V69.792V76.792H42.772V69.792ZM107.91 158H100.91V165H107.91V158ZM107.91 142.608V135.608H100.91V142.608H107.91ZM160.155 142.608H167.155V135.608H160.155V142.608ZM160.155 158V165H167.155V158H160.155ZM107.91 69.792H100.91V76.792H107.91V69.792ZM107.91 54.4V47.4H100.91V54.4H107.91ZM160.155 54.4H167.155V47.4H160.155V54.4ZM160.155 69.792V76.792H167.155V69.792H160.155ZM107.91 110.048H100.91V117.048H107.91V110.048ZM107.91 94.952V87.952H100.91V94.952H107.91ZM157.195 94.952H164.195V87.952H157.195V94.952ZM157.195 110.048V117.048H164.195V110.048H157.195ZM97.1065 54.4V47.4H90.1065V54.4H97.1065ZM114.275 54.4H121.275V47.4H114.275V54.4ZM114.275 158V165H121.275V158H114.275ZM97.1065 158H90.1065V165H97.1065V158ZM107.91 158H114.91V142.608H107.91H100.91V158H107.91ZM107.91 142.608V149.608H160.155V142.608V135.608H107.91V142.608ZM160.155 142.608H153.155V158H160.155H167.155V142.608H160.155ZM160.155 158V151H107.91V158V165H160.155V158ZM107.91 69.792H114.91V54.4H107.91H100.91V69.792H107.91ZM107.91 54.4V61.4H160.155V54.4V47.4H107.91V54.4ZM160.155 54.4H153.155V69.792H160.155H167.155V54.4H160.155ZM160.155 69.792V62.792H107.91V69.792V76.792H160.155V69.792ZM107.91 110.048H114.91V94.952H107.91H100.91V110.048H107.91ZM107.91 94.952V101.952H157.195V94.952V87.952H107.91V94.952ZM157.195 94.952H150.195V110.048H157.195H164.195V94.952H157.195ZM157.195 110.048V103.048H107.91V110.048V117.048H157.195V110.048ZM97.1065 54.4V61.4H114.275V54.4V47.4H97.1065V54.4ZM114.275 54.4H107.275V158H114.275H121.275V54.4H114.275ZM114.275 158V151H97.1065V158V165H114.275V158ZM97.1065 158H104.106V54.4H97.1065H90.1065V158H97.1065ZM192.461 158H185.461V165H192.461V158ZM192.461 142.608V135.608H185.461V142.608H192.461ZM244.705 142.608H251.705V135.608H244.705V142.608ZM244.705 158V165H251.705V158H244.705ZM192.461 69.792H185.461V76.792H192.461V69.792ZM192.461 54.4V47.4H185.461V54.4H192.461ZM244.705 54.4H251.705V47.4H244.705V54.4ZM244.705 69.792V76.792H251.705V69.792H244.705ZM192.461 110.048H185.461V117.048H192.461V110.048ZM192.461 94.952V87.952H185.461V94.952H192.461ZM241.745 94.952H248.745V87.952H241.745V94.952ZM241.745 110.048V117.048H248.745V110.048H241.745ZM181.657 54.4V47.4H174.657V54.4H181.657ZM198.825 54.4H205.825V47.4H198.825V54.4ZM198.825 158V165H205.825V158H198.825ZM181.657 158H174.657V165H181.657V158ZM192.461 158H199.461V142.608H192.461H185.461V158H192.461ZM192.461 142.608V149.608H244.705V142.608V135.608H192.461V142.608ZM244.705 142.608H237.705V158H244.705H251.705V142.608H244.705ZM244.705 158V151H192.461V158V165H244.705V158ZM192.461 69.792H199.461V54.4H192.461H185.461V69.792H192.461ZM192.461 54.4V61.4H244.705V54.4V47.4H192.461V54.4ZM244.705 54.4H237.705V69.792H244.705H251.705V54.4H244.705ZM244.705 69.792V62.792H192.461V69.792V76.792H244.705V69.792ZM192.461 110.048H199.461V94.952H192.461H185.461V110.048H192.461ZM192.461 94.952V101.952H241.745V94.952V87.952H192.461V94.952ZM241.745 94.952H234.745V110.048H241.745H248.745V94.952H241.745ZM241.745 110.048V103.048H192.461V110.048V117.048H241.745V110.048ZM181.657 54.4V61.4H198.825V54.4V47.4H181.657V54.4ZM198.825 54.4H191.825V158H198.825H205.825V54.4H198.825ZM198.825 158V151H181.657V158V165H198.825V158ZM181.657 158H188.657V54.4H181.657H174.657V158H181.657ZM266.208 54.4V47.4H259.208V54.4H266.208ZM283.672 54.4H290.672V47.4H283.672V54.4ZM283.672 142.312H276.672V149.312H283.672V142.312ZM324.816 142.312H331.816V135.312H324.816V142.312ZM324.816 158V165H331.816V158H324.816ZM266.208 158H259.208V165H266.208V158ZM266.208 54.4V61.4H283.672V54.4V47.4H266.208V54.4ZM283.672 54.4H276.672V142.312H283.672H290.672V54.4H283.672ZM283.672 142.312V149.312H324.816V142.312V135.312H283.672V142.312ZM324.816 142.312H317.816V158H324.816H331.816V142.312H324.816ZM324.816 158V151H266.208V158V165H324.816V158ZM266.208 158H273.208V54.4H266.208H259.208V158H266.208Z" fill="#FFB044" mask="url(#path-3-outside-2_1068_56)"/>
<mask id="path-5-outside-3_1068_56" maskUnits="userSpaceOnUse" x="595" y="45" width="660" height="123" fill="black">
<rect fill="white" x="595" y="45" width="660" height="123"/>
<path d="M617.352 124.7C619.621 128.647 622.039 132.149 624.604 135.208C627.268 138.168 630.179 140.487 633.336 142.164C636.493 143.743 640.045 144.532 643.992 144.532C648.728 144.532 652.576 143.249 655.536 140.684C658.496 138.119 659.976 134.813 659.976 130.768C659.976 126.92 659.039 123.861 657.164 121.592C655.289 119.224 652.675 117.251 649.32 115.672C646.064 113.995 642.265 112.367 637.924 110.788C635.359 109.9 632.497 108.716 629.34 107.236C626.183 105.657 623.173 103.733 620.312 101.464C617.451 99.096 615.083 96.2347 613.208 92.88C611.333 89.4267 610.396 85.2827 610.396 80.448C610.396 74.9227 611.827 70.088 614.688 65.944C617.549 61.7013 621.397 58.4453 626.232 56.176C631.165 53.808 636.74 52.624 642.956 52.624C649.073 52.624 654.401 53.7093 658.94 55.88C663.479 58.0507 667.277 60.8133 670.336 64.168C673.493 67.5227 675.96 71.0253 677.736 74.676L663.528 82.668C662.245 80.1027 660.617 77.7347 658.644 75.564C656.671 73.2947 654.352 71.5187 651.688 70.236C649.123 68.8547 646.113 68.164 642.66 68.164C637.825 68.164 634.273 69.2987 632.004 71.568C629.735 73.7387 628.6 76.304 628.6 79.264C628.6 81.928 629.389 84.3453 630.968 86.516C632.645 88.588 635.211 90.5613 638.664 92.436C642.117 94.3107 646.607 96.2347 652.132 98.208C655.191 99.2933 658.249 100.675 661.308 102.352C664.465 104.029 667.327 106.151 669.892 108.716C672.457 111.183 674.48 114.093 675.96 117.448C677.539 120.803 678.328 124.749 678.328 129.288C678.328 134.123 677.391 138.464 675.516 142.312C673.641 146.16 671.076 149.416 667.82 152.08C664.564 154.645 660.864 156.619 656.72 158C652.675 159.48 648.432 160.22 643.992 160.22C637.875 160.22 632.201 159.036 626.972 156.668C621.841 154.201 617.352 150.945 613.504 146.9C609.656 142.855 606.597 138.464 604.328 133.728L617.352 124.7ZM685.891 70.532V54.4H758.115V70.532H730.735V158H713.123V70.532H685.891ZM770.829 54.4H788.441V158H770.829V54.4ZM824.463 106.2C824.463 113.501 826.091 119.915 829.347 125.44C832.702 130.965 837.043 135.257 842.371 138.316C847.798 141.276 853.668 142.756 859.983 142.756C864.916 142.756 869.356 142.115 873.303 140.832C877.25 139.549 880.802 137.823 883.959 135.652C887.215 133.383 890.027 130.867 892.395 128.104V148.824C888.054 152.376 883.367 155.089 878.335 156.964C873.303 158.839 866.988 159.776 859.391 159.776C851.794 159.776 844.69 158.493 838.079 155.928C831.567 153.363 825.894 149.663 821.059 144.828C816.224 139.993 812.426 134.32 809.663 127.808C806.999 121.197 805.667 113.995 805.667 106.2C805.667 98.4053 806.999 91.252 809.663 84.74C812.426 78.1293 816.224 72.4067 821.059 67.572C825.894 62.7373 831.567 59.0373 838.079 56.472C844.69 53.9067 851.794 52.624 859.391 52.624C866.988 52.624 873.303 53.5613 878.335 55.436C883.367 57.3107 888.054 60.024 892.395 63.576V84.296C890.027 81.5333 887.215 79.0667 883.959 76.896C880.802 74.6267 877.25 72.8507 873.303 71.568C869.356 70.2853 864.916 69.644 859.983 69.644C853.668 69.644 847.798 71.1733 842.371 74.232C837.043 77.192 832.702 81.4347 829.347 86.96C826.091 92.3867 824.463 98.8 824.463 106.2ZM913.915 54.4H931.823V158H913.915V54.4ZM970.303 54.4H991.319L947.659 102.944L993.539 158H972.079L926.495 103.388L970.303 54.4ZM1016.35 158V142.608H1068.6V158H1016.35ZM1016.35 69.792V54.4H1068.6V69.792H1016.35ZM1016.35 110.048V94.952H1065.64V110.048H1016.35ZM1005.55 54.4H1022.72V158H1005.55V54.4ZM1111.41 108.568H1130.35L1165.43 158H1144.41L1111.41 108.568ZM1090.1 54.4H1107.56V158H1090.1V54.4ZM1100.46 69.496V54.4H1122.07C1129.57 54.4 1136.08 55.732 1141.6 58.396C1147.23 61.06 1151.57 64.8093 1154.63 69.644C1157.69 74.38 1159.21 80.004 1159.21 86.516C1159.21 93.028 1157.69 98.7013 1154.63 103.536C1151.57 108.371 1147.23 112.12 1141.6 114.784C1136.08 117.448 1129.57 118.78 1122.07 118.78H1100.46V104.424H1121.33C1125.27 104.424 1128.73 103.733 1131.69 102.352C1134.75 100.971 1137.11 98.9973 1138.79 96.432C1140.47 93.768 1141.31 90.6107 1141.31 86.96C1141.31 83.2107 1140.47 80.0533 1138.79 77.488C1137.11 74.9227 1134.75 72.9493 1131.69 71.568C1128.73 70.1867 1125.27 69.496 1121.33 69.496H1100.46ZM1184.93 124.7C1187.2 128.647 1189.61 132.149 1192.18 135.208C1194.84 138.168 1197.75 140.487 1200.91 142.164C1204.07 143.743 1207.62 144.532 1211.57 144.532C1216.3 144.532 1220.15 143.249 1223.11 140.684C1226.07 138.119 1227.55 134.813 1227.55 130.768C1227.55 126.92 1226.61 123.861 1224.74 121.592C1222.86 119.224 1220.25 117.251 1216.89 115.672C1213.64 113.995 1209.84 112.367 1205.5 110.788C1202.93 109.9 1200.07 108.716 1196.91 107.236C1193.76 105.657 1190.75 103.733 1187.89 101.464C1185.02 99.096 1182.66 96.2347 1180.78 92.88C1178.91 89.4267 1177.97 85.2827 1177.97 80.448C1177.97 74.9227 1179.4 70.088 1182.26 65.944C1185.12 61.7013 1188.97 58.4453 1193.81 56.176C1198.74 53.808 1204.31 52.624 1210.53 52.624C1216.65 52.624 1221.98 53.7093 1226.51 55.88C1231.05 58.0507 1234.85 60.8133 1237.91 64.168C1241.07 67.5227 1243.53 71.0253 1245.31 74.676L1231.1 82.668C1229.82 80.1027 1228.19 77.7347 1226.22 75.564C1224.24 73.2947 1221.93 71.5187 1219.26 70.236C1216.7 68.8547 1213.69 68.164 1210.23 68.164C1205.4 68.164 1201.85 69.2987 1199.58 71.568C1197.31 73.7387 1196.17 76.304 1196.17 79.264C1196.17 81.928 1196.96 84.3453 1198.54 86.516C1200.22 88.588 1202.78 90.5613 1206.24 92.436C1209.69 94.3107 1214.18 96.2347 1219.71 98.208C1222.76 99.2933 1225.82 100.675 1228.88 102.352C1232.04 104.029 1234.9 106.151 1237.47 108.716C1240.03 111.183 1242.05 114.093 1243.53 117.448C1245.11 120.803 1245.9 124.749 1245.9 129.288C1245.9 134.123 1244.96 138.464 1243.09 142.312C1241.22 146.16 1238.65 149.416 1235.39 152.08C1232.14 154.645 1228.44 156.619 1224.29 158C1220.25 159.48 1216.01 160.22 1211.57 160.22C1205.45 160.22 1199.78 159.036 1194.55 156.668C1189.42 154.201 1184.93 150.945 1181.08 146.9C1177.23 142.855 1174.17 138.464 1171.9 133.728L1184.93 124.7Z"/>
</mask>
<path d="M617.352 124.7L623.42 121.211L619.624 114.608L613.364 118.947L617.352 124.7ZM624.604 135.208L619.241 139.706L619.319 139.8L619.401 139.891L624.604 135.208ZM633.336 142.164L630.052 148.346L630.128 148.386L630.206 148.425L633.336 142.164ZM657.164 121.592L651.676 125.937L651.721 125.994L651.767 126.05L657.164 121.592ZM649.32 115.672L646.114 121.895L646.226 121.952L646.339 122.006L649.32 115.672ZM637.924 110.788L640.316 104.209L640.265 104.191L640.214 104.173L637.924 110.788ZM629.34 107.236L626.21 113.497L626.289 113.537L626.369 113.574L629.34 107.236ZM620.312 101.464L615.849 106.857L615.905 106.903L615.962 106.948L620.312 101.464ZM613.208 92.88L607.056 96.2196L607.076 96.2573L607.097 96.2947L613.208 92.88ZM614.688 65.944L620.448 69.9213L620.47 69.8898L620.492 69.858L614.688 65.944ZM626.232 56.176L629.206 62.5127L629.234 62.4998L629.261 62.4867L626.232 56.176ZM658.94 55.88L661.96 49.5651L661.96 49.565L658.94 55.88ZM670.336 64.168L665.163 68.8843L665.201 68.9252L665.239 68.9656L670.336 64.168ZM677.736 74.676L681.168 80.777L686.916 77.5439L684.031 71.6137L677.736 74.676ZM663.528 82.668L657.267 85.7985L660.554 92.3723L666.96 88.769L663.528 82.668ZM658.644 75.564L653.362 80.1572L653.412 80.2155L653.464 80.2727L658.644 75.564ZM651.688 70.236L648.369 76.3993L648.509 76.4743L648.651 76.543L651.688 70.236ZM632.004 71.568L636.843 76.6265L636.899 76.5727L636.954 76.5177L632.004 71.568ZM630.968 86.516L625.307 90.6332L625.413 90.7796L625.527 90.9204L630.968 86.516ZM638.664 92.436L642.004 86.284L638.664 92.436ZM652.132 98.208L649.778 104.8L649.784 104.803L649.791 104.805L652.132 98.208ZM661.308 102.352L657.942 108.49L657.983 108.512L658.024 108.534L661.308 102.352ZM669.892 108.716L664.942 113.666L664.991 113.714L665.04 113.762L669.892 108.716ZM675.96 117.448L669.556 120.273L669.59 120.351L669.626 120.429L675.96 117.448ZM675.516 142.312L669.223 139.246L675.516 142.312ZM667.82 152.08L672.152 157.578L672.203 157.539L672.253 157.498L667.82 152.08ZM656.72 158L654.506 151.359L654.41 151.391L654.315 151.426L656.72 158ZM626.972 156.668L623.939 162.977L624.011 163.012L624.084 163.045L626.972 156.668ZM613.504 146.9L608.432 151.725V151.725L613.504 146.9ZM604.328 133.728L600.34 127.975L595.438 131.373L598.015 136.753L604.328 133.728ZM617.352 124.7L611.284 128.189C613.73 132.444 616.377 136.292 619.241 139.706L624.604 135.208L629.967 130.71C627.7 128.006 625.513 124.85 623.42 121.211L617.352 124.7ZM624.604 135.208L619.401 139.891C622.55 143.39 626.095 146.244 630.052 148.346L633.336 142.164L636.62 135.982C634.263 134.73 631.986 132.946 629.807 130.525L624.604 135.208ZM633.336 142.164L630.206 148.425C634.445 150.544 639.088 151.532 643.992 151.532V144.532V137.532C641.002 137.532 638.542 136.941 636.466 135.903L633.336 142.164ZM643.992 144.532V151.532C650.044 151.532 655.635 149.861 660.121 145.974L655.536 140.684L650.951 135.394C649.517 136.637 647.412 137.532 643.992 137.532V144.532ZM655.536 140.684L660.121 145.974C664.671 142.03 666.976 136.767 666.976 130.768H659.976H652.976C652.976 132.859 652.321 134.208 650.951 135.394L655.536 140.684ZM659.976 130.768H666.976C666.976 125.799 665.754 120.999 662.561 117.134L657.164 121.592L651.767 126.05C652.323 126.723 652.976 128.041 652.976 130.768H659.976ZM657.164 121.592L662.652 117.247C659.971 113.86 656.415 111.274 652.301 109.338L649.32 115.672L646.339 122.006C648.934 123.227 650.608 124.588 651.676 125.937L657.164 121.592ZM649.32 115.672L652.526 109.449C648.949 107.607 644.868 105.865 640.316 104.209L637.924 110.788L635.532 117.367C639.663 118.869 643.179 120.383 646.114 121.895L649.32 115.672ZM637.924 110.788L640.214 104.173C637.934 103.384 635.305 102.301 632.311 100.898L629.34 107.236L626.369 113.574C629.69 115.131 632.783 116.416 635.634 117.403L637.924 110.788ZM629.34 107.236L632.47 100.975C629.76 99.6197 627.158 97.959 624.662 95.9795L620.312 101.464L615.962 106.948C619.189 109.508 622.605 111.695 626.21 113.497L629.34 107.236ZM620.312 101.464L624.775 96.0712C622.604 94.2742 620.786 92.091 619.319 89.4652L613.208 92.88L607.097 96.2947C609.379 100.378 612.298 103.918 615.849 106.857L620.312 101.464ZM613.208 92.88L619.36 89.5404C618.156 87.3226 617.396 84.3817 617.396 80.448H610.396H603.396C603.396 86.1836 604.511 91.5307 607.056 96.2196L613.208 92.88ZM610.396 80.448H617.396C617.396 76.1991 618.473 72.7826 620.448 69.9213L614.688 65.944L608.928 61.9667C605.181 67.3934 603.396 73.6463 603.396 80.448H610.396ZM614.688 65.944L620.492 69.858C622.614 66.7104 625.464 64.2693 629.206 62.5127L626.232 56.176L623.258 49.8393C617.331 52.6214 612.484 56.6923 608.884 62.03L614.688 65.944ZM626.232 56.176L629.261 62.4867C633.128 60.6305 637.646 59.624 642.956 59.624V52.624V45.624C635.834 45.624 629.203 46.9855 623.203 49.8653L626.232 56.176ZM642.956 52.624V59.624C648.25 59.624 652.506 60.562 655.92 62.1949L658.94 55.88L661.96 49.565C656.297 46.8566 649.897 45.624 642.956 45.624V52.624ZM658.94 55.88L655.92 62.1949C659.733 64.0185 662.775 66.2648 665.163 68.8843L670.336 64.168L675.509 59.4517C671.78 55.3619 667.225 52.0828 661.96 49.5651L658.94 55.88ZM670.336 64.168L665.239 68.9656C667.976 71.8737 670.013 74.8022 671.441 77.7383L677.736 74.676L684.031 71.6137C681.907 67.2485 679.011 63.1716 675.433 59.3704L670.336 64.168ZM677.736 74.676L674.304 68.575L660.096 76.567L663.528 82.668L666.96 88.769L681.168 80.777L677.736 74.676ZM663.528 82.668L669.789 79.5375C668.213 76.386 666.218 73.4892 663.824 70.8553L658.644 75.564L653.464 80.2727C655.017 81.9802 656.277 83.8193 657.267 85.7985L663.528 82.668ZM658.644 75.564L663.926 70.9707C661.34 67.9961 658.261 65.6316 654.725 63.929L651.688 70.236L648.651 76.543C650.443 77.4058 652.002 78.5932 653.362 80.1572L658.644 75.564ZM651.688 70.236L655.007 64.0727C651.248 62.0488 647.057 61.164 642.66 61.164V68.164V75.164C645.169 75.164 646.997 75.6605 648.369 76.3993L651.688 70.236ZM642.66 68.164V61.164C636.896 61.164 631.172 62.5005 627.054 66.6182L632.004 71.568L636.954 76.5177C637.375 76.0969 638.754 75.164 642.66 75.164V68.164ZM632.004 71.568L627.165 66.5095C623.61 69.9108 621.6 74.2672 621.6 79.264H628.6H635.6C635.6 78.3408 635.86 77.5665 636.843 76.6265L632.004 71.568ZM628.6 79.264H621.6C621.6 83.4193 622.865 87.2758 625.307 90.6332L630.968 86.516L636.629 82.3988C635.914 81.4149 635.6 80.4367 635.6 79.264H628.6ZM630.968 86.516L625.527 90.9204C627.99 93.9622 631.412 96.464 635.324 98.588L638.664 92.436L642.004 86.284C639.009 84.6586 637.301 83.2138 636.409 82.1116L630.968 86.516ZM638.664 92.436L635.324 98.588C639.208 100.696 644.061 102.759 649.778 104.8L652.132 98.208L654.486 91.6158C649.152 89.7107 645.027 87.9253 642.004 86.284L638.664 92.436ZM652.132 98.208L649.791 104.805C652.471 105.756 655.188 106.979 657.942 108.49L661.308 102.352L664.674 96.2143C661.311 94.37 657.91 92.8307 654.473 91.611L652.132 98.208ZM661.308 102.352L658.024 108.534C660.559 109.881 662.861 111.584 664.942 113.666L669.892 108.716L674.842 103.766C671.793 100.717 668.372 98.1781 664.592 96.1702L661.308 102.352ZM669.892 108.716L665.04 113.762C666.928 115.577 668.432 117.727 669.556 120.273L675.96 117.448L682.364 114.623C680.528 110.459 677.986 106.788 674.744 103.67L669.892 108.716ZM675.96 117.448L669.626 120.429C670.679 122.666 671.328 125.554 671.328 129.288H678.328H685.328C685.328 123.945 684.398 118.94 682.294 114.467L675.96 117.448ZM678.328 129.288H671.328C671.328 133.199 670.575 136.47 669.223 139.246L675.516 142.312L681.809 145.378C684.206 140.458 685.328 135.047 685.328 129.288H678.328ZM675.516 142.312L669.223 139.246C667.783 142.201 665.847 144.65 663.387 146.662L667.82 152.08L672.253 157.498C676.305 154.182 679.499 150.119 681.809 145.378L675.516 142.312ZM667.82 152.08L663.488 146.582C660.9 148.62 657.925 150.22 654.506 151.359L656.72 158L658.934 164.641C663.803 163.018 668.228 160.67 672.152 157.578L667.82 152.08ZM656.72 158L654.315 151.426C651.064 152.616 647.637 153.22 643.992 153.22V160.22V167.22C649.227 167.22 654.286 166.344 659.125 164.574L656.72 158ZM643.992 160.22V153.22C638.804 153.22 634.123 152.222 629.86 150.291L626.972 156.668L624.084 163.045C630.28 165.85 636.945 167.22 643.992 167.22V160.22ZM626.972 156.668L630.005 150.359C625.623 148.252 621.828 145.495 618.576 142.076L613.504 146.9L608.432 151.725C612.876 156.396 618.06 160.15 623.939 162.977L626.972 156.668ZM613.504 146.9L618.576 142.076C615.201 138.528 612.574 134.737 610.641 130.703L604.328 133.728L598.015 136.753C600.621 142.191 604.111 147.182 608.432 151.725L613.504 146.9ZM604.328 133.728L608.316 139.481L621.34 130.453L617.352 124.7L613.364 118.947L600.34 127.975L604.328 133.728ZM685.891 70.532H678.891V77.532H685.891V70.532ZM685.891 54.4V47.4H678.891V54.4H685.891ZM758.115 54.4H765.115V47.4H758.115V54.4ZM758.115 70.532V77.532H765.115V70.532H758.115ZM730.735 70.532V63.532H723.735V70.532H730.735ZM730.735 158V165H737.735V158H730.735ZM713.123 158H706.123V165H713.123V158ZM713.123 70.532H720.123V63.532H713.123V70.532ZM685.891 70.532H692.891V54.4H685.891H678.891V70.532H685.891ZM685.891 54.4V61.4H758.115V54.4V47.4H685.891V54.4ZM758.115 54.4H751.115V70.532H758.115H765.115V54.4H758.115ZM758.115 70.532V63.532H730.735V70.532V77.532H758.115V70.532ZM730.735 70.532H723.735V158H730.735H737.735V70.532H730.735ZM730.735 158V151H713.123V158V165H730.735V158ZM713.123 158H720.123V70.532H713.123H706.123V158H713.123ZM713.123 70.532V63.532H685.891V70.532V77.532H713.123V70.532ZM770.829 54.4V47.4H763.829V54.4H770.829ZM788.441 54.4H795.441V47.4H788.441V54.4ZM788.441 158V165H795.441V158H788.441ZM770.829 158H763.829V165H770.829V158ZM770.829 54.4V61.4H788.441V54.4V47.4H770.829V54.4ZM788.441 54.4H781.441V158H788.441H795.441V54.4H788.441ZM788.441 158V151H770.829V158V165H788.441V158ZM770.829 158H777.829V54.4H770.829H763.829V158H770.829ZM829.347 125.44L823.316 128.994L823.34 129.033L823.363 129.073L829.347 125.44ZM842.371 138.316L838.886 144.387L838.952 144.425L839.019 144.461L842.371 138.316ZM873.303 140.832L875.467 147.489V147.489L873.303 140.832ZM883.959 135.652L887.925 141.42L887.943 141.408L887.962 141.395L883.959 135.652ZM892.395 128.104H899.395V109.181L887.08 123.548L892.395 128.104ZM892.395 148.824L896.828 154.242L899.395 152.141V148.824H892.395ZM878.335 156.964L880.779 163.524V163.524L878.335 156.964ZM838.079 155.928L835.513 162.441L835.53 162.447L835.547 162.454L838.079 155.928ZM821.059 144.828L816.109 149.778V149.778L821.059 144.828ZM809.663 127.808L803.17 130.424L803.194 130.483L803.219 130.542L809.663 127.808ZM809.663 84.74L803.204 82.0408L803.194 82.0652L803.184 82.0896L809.663 84.74ZM821.059 67.572L826.009 72.5218V72.5217L821.059 67.572ZM838.079 56.472L835.547 49.9461L835.53 49.9526L835.513 49.9591L838.079 56.472ZM878.335 55.436L880.779 48.8764V48.8764L878.335 55.436ZM892.395 63.576H899.395V60.2589L896.828 58.1583L892.395 63.576ZM892.395 84.296L887.08 88.8515L899.395 103.219V84.296H892.395ZM883.959 76.896L879.874 82.5801L879.974 82.652L880.076 82.7203L883.959 76.896ZM873.303 71.568L875.467 64.9108H875.467L873.303 71.568ZM842.371 74.232L845.77 80.3511L845.789 80.3406L845.808 80.3301L842.371 74.232ZM829.347 86.96L823.363 83.3271L823.354 83.3428L823.345 83.3585L829.347 86.96ZM824.463 106.2H817.463C817.463 114.575 819.342 122.249 823.316 128.994L829.347 125.44L835.378 121.886C832.84 117.58 831.463 112.428 831.463 106.2H824.463ZM829.347 125.44L823.363 129.073C827.299 135.554 832.479 140.708 838.886 144.387L842.371 138.316L845.856 132.245C841.607 129.806 838.105 126.376 835.33 121.807L829.347 125.44ZM842.371 138.316L839.019 144.461C845.497 147.995 852.523 149.756 859.983 149.756V142.756V135.756C854.813 135.756 850.099 134.557 845.723 132.171L842.371 138.316ZM859.983 142.756V149.756C865.516 149.756 870.704 149.037 875.467 147.489L873.303 140.832L871.139 134.175C868.009 135.192 864.316 135.756 859.983 135.756V142.756ZM873.303 140.832L875.467 147.489C880.001 146.016 884.168 144.003 887.925 141.42L883.959 135.652L879.993 129.884C877.435 131.643 874.499 133.083 871.139 134.175L873.303 140.832ZM883.959 135.652L887.962 141.395C891.66 138.817 894.923 135.911 897.71 132.66L892.395 128.104L887.08 123.548C885.131 125.823 882.77 127.948 879.956 129.909L883.959 135.652ZM892.395 128.104H885.395V148.824H892.395H899.395V128.104H892.395ZM892.395 148.824L887.962 143.406C884.19 146.493 880.17 148.81 875.891 150.404L878.335 156.964L880.779 163.524C886.564 161.368 891.917 158.259 896.828 154.242L892.395 148.824ZM878.335 156.964L875.891 150.404C871.892 151.894 866.473 152.776 859.391 152.776V159.776V166.776C867.504 166.776 874.714 165.783 880.779 163.524L878.335 156.964ZM859.391 159.776V152.776C852.598 152.776 846.358 151.632 840.611 149.402L838.079 155.928L835.547 162.454C843.021 165.354 850.99 166.776 859.391 166.776V159.776ZM838.079 155.928L840.645 149.415C835.004 147.193 830.148 144.018 826.009 139.878L821.059 144.828L816.109 149.778C821.639 155.308 828.13 159.532 835.513 162.441L838.079 155.928ZM821.059 144.828L826.009 139.878C821.832 135.701 818.531 130.788 816.107 125.074L809.663 127.808L803.219 130.542C806.32 137.852 810.617 144.285 816.109 149.778L821.059 144.828ZM809.663 127.808L816.156 125.192C813.857 119.487 812.667 113.182 812.667 106.2H805.667H798.667C798.667 114.807 800.141 122.907 803.17 130.424L809.663 127.808ZM805.667 106.2H812.667C812.667 99.2161 813.857 92.9749 816.142 87.3904L809.663 84.74L803.184 82.0896C800.141 89.5291 798.667 97.5945 798.667 106.2H805.667ZM809.663 84.74L816.122 87.4391C818.55 81.6288 821.849 76.681 826.009 72.5218L821.059 67.572L816.109 62.6223C810.599 68.1323 806.301 74.6298 803.204 82.0408L809.663 84.74ZM821.059 67.572L826.009 72.5217C830.148 68.3824 835.004 65.2067 840.645 62.9848L838.079 56.472L835.513 49.9591C828.13 52.8679 821.639 57.0922 816.109 62.6223L821.059 67.572ZM838.079 56.472L840.611 62.9979C846.358 60.7677 852.598 59.624 859.391 59.624V52.624V45.624C850.99 45.624 843.021 47.0456 835.547 49.9461L838.079 56.472ZM859.391 52.624V59.624C866.473 59.624 871.892 60.5058 875.891 61.9956L878.335 55.436L880.779 48.8764C874.714 46.6168 867.504 45.624 859.391 45.624V52.624ZM878.335 55.436L875.891 61.9956C880.17 63.5897 884.19 65.9071 887.962 68.9937L892.395 63.576L896.828 58.1583C891.917 54.1408 886.564 51.0316 880.779 48.8764L878.335 55.436ZM892.395 63.576H885.395V84.296H892.395H899.395V63.576H892.395ZM892.395 84.296L897.71 79.7405C894.895 76.4561 891.591 73.571 887.842 71.0716L883.959 76.896L880.076 82.7203C882.839 84.5623 885.159 86.6106 887.08 88.8515L892.395 84.296ZM883.959 76.896L888.044 71.2119C884.262 68.4935 880.054 66.4017 875.467 64.9108L873.303 71.568L871.139 78.2252C874.445 79.2997 877.341 80.7598 879.874 82.5801L883.959 76.896ZM873.303 71.568L875.467 64.9108C870.704 63.3628 865.516 62.644 859.983 62.644V69.644V76.644C864.316 76.644 868.009 77.2078 871.139 78.2252L873.303 71.568ZM859.983 69.644V62.644C852.481 62.644 845.425 64.4756 838.934 68.1339L842.371 74.232L845.808 80.3301C850.171 77.8711 854.855 76.644 859.983 76.644V69.644ZM842.371 74.232L838.971 68.1129C832.516 71.6992 827.309 76.828 823.363 83.3271L829.347 86.96L835.33 90.5928C838.094 86.0414 841.57 82.6848 845.77 80.3511L842.371 74.232ZM829.347 86.96L823.345 83.3585C819.332 90.0456 817.463 97.7488 817.463 106.2H824.463H831.463C831.463 99.8512 832.85 94.7277 835.349 90.5615L829.347 86.96ZM913.915 54.4V47.4H906.915V54.4H913.915ZM931.823 54.4H938.823V47.4H931.823V54.4ZM931.823 158V165H938.823V158H931.823ZM913.915 158H906.915V165H913.915V158ZM970.303 54.4V47.4H967.172L965.085 49.7338L970.303 54.4ZM991.319 54.4L996.524 59.081L1007.03 47.4H991.319V54.4ZM947.659 102.944L942.454 98.263L938.402 102.769L942.282 107.425L947.659 102.944ZM993.539 158V165H1008.48L998.917 153.519L993.539 158ZM972.079 158L966.705 162.486L968.804 165H972.079V158ZM926.495 103.388L921.277 98.7218L917.245 103.23L921.121 107.874L926.495 103.388ZM913.915 54.4V61.4H931.823V54.4V47.4H913.915V54.4ZM931.823 54.4H924.823V158H931.823H938.823V54.4H931.823ZM931.823 158V151H913.915V158V165H931.823V158ZM913.915 158H920.915V54.4H913.915H906.915V158H913.915ZM970.303 54.4V61.4H991.319V54.4V47.4H970.303V54.4ZM991.319 54.4L986.114 49.719L942.454 98.263L947.659 102.944L952.864 107.625L996.524 59.081L991.319 54.4ZM947.659 102.944L942.282 107.425L988.162 162.481L993.539 158L998.917 153.519L953.037 98.4627L947.659 102.944ZM993.539 158V151H972.079V158V165H993.539V158ZM972.079 158L977.453 153.514L931.869 98.9024L926.495 103.388L921.121 107.874L966.705 162.486L972.079 158ZM926.495 103.388L931.713 108.054L975.521 59.0662L970.303 54.4L965.085 49.7338L921.277 98.7218L926.495 103.388ZM1016.35 158H1009.35V165H1016.35V158ZM1016.35 142.608V135.608H1009.35V142.608H1016.35ZM1068.6 142.608H1075.6V135.608H1068.6V142.608ZM1068.6 158V165H1075.6V158H1068.6ZM1016.35 69.792H1009.35V76.792H1016.35V69.792ZM1016.35 54.4V47.4H1009.35V54.4H1016.35ZM1068.6 54.4H1075.6V47.4H1068.6V54.4ZM1068.6 69.792V76.792H1075.6V69.792H1068.6ZM1016.35 110.048H1009.35V117.048H1016.35V110.048ZM1016.35 94.952V87.952H1009.35V94.952H1016.35ZM1065.64 94.952H1072.64V87.952H1065.64V94.952ZM1065.64 110.048V117.048H1072.64V110.048H1065.64ZM1005.55 54.4V47.4H998.548V54.4H1005.55ZM1022.72 54.4H1029.72V47.4H1022.72V54.4ZM1022.72 158V165H1029.72V158H1022.72ZM1005.55 158H998.548V165H1005.55V158ZM1016.35 158H1023.35V142.608H1016.35H1009.35V158H1016.35ZM1016.35 142.608V149.608H1068.6V142.608V135.608H1016.35V142.608ZM1068.6 142.608H1061.6V158H1068.6H1075.6V142.608H1068.6ZM1068.6 158V151H1016.35V158V165H1068.6V158ZM1016.35 69.792H1023.35V54.4H1016.35H1009.35V69.792H1016.35ZM1016.35 54.4V61.4H1068.6V54.4V47.4H1016.35V54.4ZM1068.6 54.4H1061.6V69.792H1068.6H1075.6V54.4H1068.6ZM1068.6 69.792V62.792H1016.35V69.792V76.792H1068.6V69.792ZM1016.35 110.048H1023.35V94.952H1016.35H1009.35V110.048H1016.35ZM1016.35 94.952V101.952H1065.64V94.952V87.952H1016.35V94.952ZM1065.64 94.952H1058.64V110.048H1065.64H1072.64V94.952H1065.64ZM1065.64 110.048V103.048H1016.35V110.048V117.048H1065.64V110.048ZM1005.55 54.4V61.4H1022.72V54.4V47.4H1005.55V54.4ZM1022.72 54.4H1015.72V158H1022.72H1029.72V54.4H1022.72ZM1022.72 158V151H1005.55V158V165H1022.72V158ZM1005.55 158H1012.55V54.4H1005.55H998.548V158H1005.55ZM1111.41 108.568V101.568H1098.32L1105.59 112.455L1111.41 108.568ZM1130.35 108.568L1136.06 104.517L1133.97 101.568H1130.35V108.568ZM1165.43 158V165H1178.98L1171.14 153.949L1165.43 158ZM1144.41 158L1138.59 161.887L1140.67 165H1144.41V158ZM1090.1 54.4V47.4H1083.1V54.4H1090.1ZM1107.56 54.4H1114.56V47.4H1107.56V54.4ZM1107.56 158V165H1114.56V158H1107.56ZM1090.1 158H1083.1V165H1090.1V158ZM1100.46 69.496H1093.46V76.496H1100.46V69.496ZM1100.46 54.4V47.4H1093.46V54.4H1100.46ZM1141.6 58.396L1138.56 64.7014L1138.58 64.7118L1138.61 64.7222L1141.6 58.396ZM1154.63 69.644L1148.71 73.3865L1148.73 73.4142L1148.75 73.4417L1154.63 69.644ZM1154.63 103.536L1148.71 99.7935V99.7935L1154.63 103.536ZM1141.6 114.784L1138.61 108.458L1138.58 108.468L1138.56 108.479L1141.6 114.784ZM1100.46 118.78H1093.46V125.78H1100.46V118.78ZM1100.46 104.424V97.424H1093.46V104.424H1100.46ZM1131.69 102.352L1128.81 95.9724L1128.77 95.9903L1128.73 96.0087L1131.69 102.352ZM1138.79 96.432L1144.65 100.263L1144.68 100.212L1144.71 100.162L1138.79 96.432ZM1138.79 77.488L1132.93 81.3187V81.3187L1138.79 77.488ZM1131.69 71.568L1128.73 77.9113L1128.77 77.9297L1128.81 77.9476L1131.69 71.568ZM1111.41 108.568V115.568H1130.35V108.568V101.568H1111.41V108.568ZM1130.35 108.568L1124.65 112.619L1159.72 162.051L1165.43 158L1171.14 153.949L1136.06 104.517L1130.35 108.568ZM1165.43 158V151H1144.41V158V165H1165.43V158ZM1144.41 158L1150.24 154.113L1117.23 104.681L1111.41 108.568L1105.59 112.455L1138.59 161.887L1144.41 158ZM1090.1 54.4V61.4H1107.56V54.4V47.4H1090.1V54.4ZM1107.56 54.4H1100.56V158H1107.56H1114.56V54.4H1107.56ZM1107.56 158V151H1090.1V158V165H1107.56V158ZM1090.1 158H1097.1V54.4H1090.1H1083.1V158H1090.1ZM1100.46 69.496H1107.46V54.4H1100.46H1093.46V69.496H1100.46ZM1100.46 54.4V61.4H1122.07V54.4V47.4H1100.46V54.4ZM1122.07 54.4V61.4C1128.74 61.4 1134.17 62.5849 1138.56 64.7014L1141.6 58.396L1144.64 52.0906C1137.98 48.8791 1130.39 47.4 1122.07 47.4V54.4ZM1141.6 58.396L1138.61 64.7222C1143.14 66.8704 1146.42 69.77 1148.71 73.3865L1154.63 69.644L1160.54 65.9015C1156.71 59.8486 1151.31 55.2495 1144.6 52.0698L1141.6 58.396ZM1154.63 69.644L1148.75 73.4417C1150.97 76.8788 1152.21 81.1375 1152.21 86.516H1159.21H1166.21C1166.21 78.8705 1164.4 71.8812 1160.51 65.8463L1154.63 69.644ZM1159.21 86.516H1152.21C1152.21 91.8909 1150.97 96.2274 1148.71 99.7935L1154.63 103.536L1160.54 107.278C1164.4 101.175 1166.21 94.1651 1166.21 86.516H1159.21ZM1154.63 103.536L1148.71 99.7935C1146.42 103.41 1143.14 106.31 1138.61 108.458L1141.6 114.784L1144.6 121.11C1151.31 117.93 1156.71 113.331 1160.54 107.278L1154.63 103.536ZM1141.6 114.784L1138.56 108.479C1134.17 110.595 1128.74 111.78 1122.07 111.78V118.78V125.78C1130.39 125.78 1137.98 124.301 1144.64 121.089L1141.6 114.784ZM1122.07 118.78V111.78H1100.46V118.78V125.78H1122.07V118.78ZM1100.46 118.78H1107.46V104.424H1100.46H1093.46V118.78H1100.46ZM1100.46 104.424V111.424H1121.33V104.424V97.424H1100.46V104.424ZM1121.33 104.424V111.424C1126.09 111.424 1130.59 110.59 1134.65 108.695L1131.69 102.352L1128.73 96.0087C1126.87 96.8769 1124.46 97.424 1121.33 97.424V104.424ZM1131.69 102.352L1134.57 108.732C1138.72 106.856 1142.17 104.049 1144.65 100.263L1138.79 96.432L1132.93 92.6013C1132.05 93.9456 1130.77 95.0857 1128.81 95.9724L1131.69 102.352ZM1138.79 96.432L1144.71 100.162C1147.2 96.2119 1148.31 91.7157 1148.31 86.96H1141.31H1134.31C1134.31 89.5057 1133.73 91.3241 1132.87 92.7023L1138.79 96.432ZM1141.31 86.96H1148.31C1148.31 82.1558 1147.22 77.5929 1144.65 73.6572L1138.79 77.488L1132.93 81.3187C1133.71 82.5137 1134.31 84.2655 1134.31 86.96H1141.31ZM1138.79 77.488L1144.65 73.6573C1142.17 69.8709 1138.72 67.0644 1134.57 65.1884L1131.69 71.568L1128.81 77.9476C1130.77 78.8343 1132.05 79.9744 1132.93 81.3187L1138.79 77.488ZM1131.69 71.568L1134.65 65.2247C1130.59 63.3302 1126.09 62.496 1121.33 62.496V69.496V76.496C1124.46 76.496 1126.87 77.0431 1128.73 77.9113L1131.69 71.568ZM1121.33 69.496V62.496H1100.46V69.496V76.496H1121.33V69.496ZM1184.93 124.7L1190.99 121.211L1187.2 114.608L1180.94 118.947L1184.93 124.7ZM1192.18 135.208L1186.81 139.706L1186.89 139.8L1186.98 139.891L1192.18 135.208ZM1200.91 142.164L1197.63 148.346L1197.7 148.386L1197.78 148.425L1200.91 142.164ZM1224.74 121.592L1219.25 125.937L1219.3 125.994L1219.34 126.05L1224.74 121.592ZM1216.89 115.672L1213.69 121.895L1213.8 121.952L1213.91 122.006L1216.89 115.672ZM1205.5 110.788L1207.89 104.209L1207.84 104.191L1207.79 104.173L1205.5 110.788ZM1196.91 107.236L1193.78 113.497L1193.86 113.537L1193.94 113.574L1196.91 107.236ZM1187.89 101.464L1183.42 106.857L1183.48 106.903L1183.54 106.948L1187.89 101.464ZM1180.78 92.88L1174.63 96.2196L1174.65 96.2573L1174.67 96.2947L1180.78 92.88ZM1182.26 65.944L1188.02 69.9213L1188.04 69.8898L1188.07 69.858L1182.26 65.944ZM1193.81 56.176L1196.78 62.5127L1196.81 62.4998L1196.84 62.4867L1193.81 56.176ZM1226.51 55.88L1229.53 49.5651V49.565L1226.51 55.88ZM1237.91 64.168L1232.74 68.8843L1232.77 68.9252L1232.81 68.9656L1237.91 64.168ZM1245.31 74.676L1248.74 80.777L1254.49 77.5439L1251.6 71.6137L1245.31 74.676ZM1231.1 82.668L1224.84 85.7985L1228.13 92.3723L1234.53 88.769L1231.1 82.668ZM1226.22 75.564L1220.94 80.1572L1220.99 80.2155L1221.04 80.2727L1226.22 75.564ZM1219.26 70.236L1215.94 76.3993L1216.08 76.4743L1216.23 76.543L1219.26 70.236ZM1199.58 71.568L1204.42 76.6265L1204.47 76.5727L1204.53 76.5177L1199.58 71.568ZM1198.54 86.516L1192.88 90.6332L1192.99 90.7796L1193.1 90.9204L1198.54 86.516ZM1206.24 92.436L1209.58 86.284L1206.24 92.436ZM1219.71 98.208L1217.35 104.8L1217.36 104.803L1217.37 104.805L1219.71 98.208ZM1228.88 102.352L1225.52 108.49L1225.56 108.512L1225.6 108.534L1228.88 102.352ZM1237.47 108.716L1232.52 113.666L1232.57 113.714L1232.61 113.762L1237.47 108.716ZM1243.53 117.448L1237.13 120.273L1237.16 120.351L1237.2 120.429L1243.53 117.448ZM1243.09 142.312L1236.8 139.246L1243.09 142.312ZM1235.39 152.08L1239.73 157.578L1239.78 157.539L1239.83 157.498L1235.39 152.08ZM1224.29 158L1222.08 151.359L1221.98 151.391L1221.89 151.426L1224.29 158ZM1194.55 156.668L1191.51 162.977L1191.59 163.012L1191.66 163.045L1194.55 156.668ZM1181.08 146.9L1176.01 151.725V151.725L1181.08 146.9ZM1171.9 133.728L1167.91 127.975L1163.01 131.373L1165.59 136.753L1171.9 133.728ZM1184.93 124.7L1178.86 128.189C1181.3 132.444 1183.95 136.292 1186.81 139.706L1192.18 135.208L1197.54 130.71C1195.27 128.006 1193.09 124.85 1190.99 121.211L1184.93 124.7ZM1192.18 135.208L1186.98 139.891C1190.12 143.39 1193.67 146.244 1197.63 148.346L1200.91 142.164L1204.19 135.982C1201.84 134.73 1199.56 132.946 1197.38 130.525L1192.18 135.208ZM1200.91 142.164L1197.78 148.425C1202.02 150.544 1206.66 151.532 1211.57 151.532V144.532V137.532C1208.58 137.532 1206.12 136.941 1204.04 135.903L1200.91 142.164ZM1211.57 144.532V151.532C1217.62 151.532 1223.21 149.861 1227.69 145.974L1223.11 140.684L1218.53 135.394C1217.09 136.637 1214.99 137.532 1211.57 137.532V144.532ZM1223.11 140.684L1227.69 145.974C1232.25 142.03 1234.55 136.767 1234.55 130.768H1227.55H1220.55C1220.55 132.859 1219.89 134.208 1218.53 135.394L1223.11 140.684ZM1227.55 130.768H1234.55C1234.55 125.799 1233.33 120.999 1230.13 117.134L1224.74 121.592L1219.34 126.05C1219.9 126.723 1220.55 128.041 1220.55 130.768H1227.55ZM1224.74 121.592L1230.23 117.247C1227.55 113.86 1223.99 111.274 1219.87 109.338L1216.89 115.672L1213.91 122.006C1216.51 123.227 1218.18 124.588 1219.25 125.937L1224.74 121.592ZM1216.89 115.672L1220.1 109.449C1216.52 107.607 1212.44 105.865 1207.89 104.209L1205.5 110.788L1203.11 117.367C1207.24 118.869 1210.75 120.383 1213.69 121.895L1216.89 115.672ZM1205.5 110.788L1207.79 104.173C1205.51 103.384 1202.88 102.301 1199.89 100.898L1196.91 107.236L1193.94 113.574C1197.26 115.131 1200.36 116.416 1203.21 117.403L1205.5 110.788ZM1196.91 107.236L1200.04 100.975C1197.33 99.6197 1194.73 97.959 1192.24 95.9795L1187.89 101.464L1183.54 106.948C1186.76 109.508 1190.18 111.695 1193.78 113.497L1196.91 107.236ZM1187.89 101.464L1192.35 96.0712C1190.18 94.2742 1188.36 92.091 1186.89 89.4652L1180.78 92.88L1174.67 96.2947C1176.95 100.378 1179.87 103.918 1183.42 106.857L1187.89 101.464ZM1180.78 92.88L1186.93 89.5404C1185.73 87.3226 1184.97 84.3817 1184.97 80.448H1177.97H1170.97C1170.97 86.1836 1172.08 91.5307 1174.63 96.2196L1180.78 92.88ZM1177.97 80.448H1184.97C1184.97 76.1991 1186.05 72.7826 1188.02 69.9213L1182.26 65.944L1176.5 61.9667C1172.75 67.3934 1170.97 73.6463 1170.97 80.448H1177.97ZM1182.26 65.944L1188.07 69.858C1190.19 66.7104 1193.04 64.2693 1196.78 62.5127L1193.81 56.176L1190.83 49.8393C1184.9 52.6214 1180.06 56.6923 1176.46 62.03L1182.26 65.944ZM1193.81 56.176L1196.84 62.4867C1200.7 60.6305 1205.22 59.624 1210.53 59.624V52.624V45.624C1203.41 45.624 1196.78 46.9855 1190.78 49.8653L1193.81 56.176ZM1210.53 52.624V59.624C1215.82 59.624 1220.08 60.562 1223.49 62.1949L1226.51 55.88L1229.53 49.565C1223.87 46.8566 1217.47 45.624 1210.53 45.624V52.624ZM1226.51 55.88L1223.49 62.1949C1227.31 64.0185 1230.35 66.2648 1232.74 68.8843L1237.91 64.168L1243.08 59.4517C1239.35 55.3619 1234.8 52.0828 1229.53 49.5651L1226.51 55.88ZM1237.91 64.168L1232.81 68.9656C1235.55 71.8737 1237.59 74.8022 1239.02 77.7383L1245.31 74.676L1251.6 71.6137C1249.48 67.2485 1246.59 63.1716 1243.01 59.3704L1237.91 64.168ZM1245.31 74.676L1241.88 68.575L1227.67 76.567L1231.1 82.668L1234.53 88.769L1248.74 80.777L1245.31 74.676ZM1231.1 82.668L1237.36 79.5375C1235.79 76.386 1233.79 73.4892 1231.4 70.8553L1226.22 75.564L1221.04 80.2727C1222.59 81.9802 1223.85 83.8193 1224.84 85.7985L1231.1 82.668ZM1226.22 75.564L1231.5 70.9707C1228.91 67.9961 1225.84 65.6316 1222.3 63.929L1219.26 70.236L1216.23 76.543C1218.02 77.4058 1219.58 78.5932 1220.94 80.1572L1226.22 75.564ZM1219.26 70.236L1222.58 64.0727C1218.82 62.0488 1214.63 61.164 1210.23 61.164V68.164V75.164C1212.74 75.164 1214.57 75.6605 1215.94 76.3993L1219.26 70.236ZM1210.23 68.164V61.164C1204.47 61.164 1198.75 62.5005 1194.63 66.6182L1199.58 71.568L1204.53 76.5177C1204.95 76.0969 1206.33 75.164 1210.23 75.164V68.164ZM1199.58 71.568L1194.74 66.5095C1191.18 69.9108 1189.17 74.2672 1189.17 79.264H1196.17H1203.17C1203.17 78.3408 1203.43 77.5665 1204.42 76.6265L1199.58 71.568ZM1196.17 79.264H1189.17C1189.17 83.4193 1190.44 87.2758 1192.88 90.6332L1198.54 86.516L1204.2 82.3988C1203.49 81.4149 1203.17 80.4367 1203.17 79.264H1196.17ZM1198.54 86.516L1193.1 90.9204C1195.56 93.9622 1198.99 96.464 1202.9 98.588L1206.24 92.436L1209.58 86.284C1206.58 84.6586 1204.88 83.2138 1203.98 82.1116L1198.54 86.516ZM1206.24 92.436L1202.9 98.588C1206.78 100.696 1211.64 102.759 1217.35 104.8L1219.71 98.208L1222.06 91.6158C1216.73 89.7107 1212.6 87.9253 1209.58 86.284L1206.24 92.436ZM1219.71 98.208L1217.37 104.805C1220.05 105.756 1222.76 106.979 1225.52 108.49L1228.88 102.352L1232.25 96.2143C1228.88 94.37 1225.48 92.8307 1222.05 91.611L1219.71 98.208ZM1228.88 102.352L1225.6 108.534C1228.13 109.881 1230.43 111.584 1232.52 113.666L1237.47 108.716L1242.42 103.766C1239.37 100.717 1235.95 98.1781 1232.17 96.1702L1228.88 102.352ZM1237.47 108.716L1232.61 113.762C1234.5 115.577 1236.01 117.727 1237.13 120.273L1243.53 117.448L1249.94 114.623C1248.1 110.459 1245.56 106.788 1242.32 103.67L1237.47 108.716ZM1243.53 117.448L1237.2 120.429C1238.25 122.666 1238.9 125.554 1238.9 129.288H1245.9H1252.9C1252.9 123.945 1251.97 118.94 1249.87 114.467L1243.53 117.448ZM1245.9 129.288H1238.9C1238.9 133.199 1238.15 136.47 1236.8 139.246L1243.09 142.312L1249.38 145.378C1251.78 140.458 1252.9 135.047 1252.9 129.288H1245.9ZM1243.09 142.312L1236.8 139.246C1235.36 142.201 1233.42 144.65 1230.96 146.662L1235.39 152.08L1239.83 157.498C1243.88 154.182 1247.07 150.119 1249.38 145.378L1243.09 142.312ZM1235.39 152.08L1231.06 146.582C1228.47 148.62 1225.5 150.22 1222.08 151.359L1224.29 158L1226.51 164.641C1231.38 163.018 1235.8 160.67 1239.73 157.578L1235.39 152.08ZM1224.29 158L1221.89 151.426C1218.64 152.616 1215.21 153.22 1211.57 153.22V160.22V167.22C1216.8 167.22 1221.86 166.344 1226.7 164.574L1224.29 158ZM1211.57 160.22V153.22C1206.38 153.22 1201.7 152.222 1197.43 150.291L1194.55 156.668L1191.66 163.045C1197.85 165.85 1204.52 167.22 1211.57 167.22V160.22ZM1194.55 156.668L1197.58 150.359C1193.2 148.252 1189.4 145.495 1186.15 142.076L1181.08 146.9L1176.01 151.725C1180.45 156.396 1185.63 160.15 1191.51 162.977L1194.55 156.668ZM1181.08 146.9L1186.15 142.076C1182.78 138.528 1180.15 134.737 1178.21 130.703L1171.9 133.728L1165.59 136.753C1168.2 142.191 1171.68 147.182 1176.01 151.725L1181.08 146.9ZM1171.9 133.728L1175.89 139.481L1188.91 130.453L1184.93 124.7L1180.94 118.947L1167.91 127.975L1171.9 133.728Z" fill="#2EC4B6" mask="url(#path-5-outside-3_1068_56)"/>
</svg>
