<svg viewBox="0 0 429 36" fill="none" xmlns="http://www.w3.org/2000/svg">
<path d="M0.744 1.4H6.408V35H0.744V1.4ZM4.104 6.392V1.4H10.872C13.304 1.4 15.416 1.832 17.208 2.696C19.032 3.528 20.44 4.728 21.432 6.296C22.424 7.832 22.92 9.672 22.92 11.816C22.92 13.96 22.424 15.816 21.432 17.384C20.44 18.952 19.032 20.168 17.208 21.032C15.416 21.864 13.304 22.28 10.872 22.28H4.104V17.288H10.872C12.824 17.288 14.392 16.824 15.576 15.896C16.76 14.968 17.352 13.608 17.352 11.816C17.352 10.024 16.76 8.68 15.576 7.784C14.392 6.856 12.824 6.392 10.872 6.392H4.104ZM31.998 35V30.008H48.942V35H31.998ZM31.998 6.392V1.4H48.942V6.392H31.998ZM31.998 19.448V14.552H47.982V19.448H31.998ZM28.494 1.4H34.062V35H28.494V1.4Z" fill="#FFE863"/>
<path d="M59.4199 35V30.008H76.3639V35H59.4199ZM59.4199 6.392V1.4H76.3639V6.392H59.4199ZM59.4199 19.448V14.552H75.4039V19.448H59.4199ZM55.9159 1.4H61.4839V35H55.9159V1.4ZM83.3378 1.4H89.0018V29.912H102.346V35H83.3378V1.4Z" fill="#FDFFFC"/>
<path d="M117.478 6.632V1.4H140.902V6.632H132.022V35H126.31V6.632H117.478ZM147.281 19.592V14.36H171.233V19.592H147.281ZM167.585 1.4H173.249V35H167.585V1.4ZM145.025 1.4H150.689V35H145.025V1.4Z" fill="#FB596D"/>
<path d="M184.248 35V30.008H201.192V35H184.248ZM184.248 6.392V1.4H201.192V6.392H184.248ZM184.248 19.448V14.552H200.232V19.448H184.248ZM180.744 1.4H186.312V35H180.744V1.4Z" fill="#FFB044"/>
<path d="M224.765 24.2C225.501 25.48 226.285 26.616 227.117 27.608C227.981 28.568 228.925 29.32 229.949 29.864C230.973 30.376 232.125 30.632 233.405 30.632C234.941 30.632 236.189 30.216 237.149 29.384C238.109 28.552 238.589 27.48 238.589 26.168C238.589 24.92 238.285 23.928 237.677 23.192C237.069 22.424 236.221 21.784 235.133 21.272C234.077 20.728 232.845 20.2 231.437 19.688C230.605 19.4 229.677 19.016 228.653 18.536C227.629 18.024 226.653 17.4 225.725 16.664C224.797 15.896 224.029 14.968 223.421 13.88C222.813 12.76 222.509 11.416 222.509 9.848C222.509 8.056 222.973 6.488 223.901 5.144C224.829 3.768 226.077 2.712 227.645 1.976C229.245 1.208 231.053 0.823999 233.069 0.823999C235.053 0.823999 236.781 1.176 238.253 1.88C239.725 2.584 240.957 3.48 241.949 4.568C242.973 5.656 243.773 6.792 244.349 7.976L239.741 10.568C239.325 9.736 238.797 8.968 238.157 8.264C237.517 7.528 236.765 6.952 235.901 6.536C235.069 6.088 234.093 5.864 232.973 5.864C231.405 5.864 230.253 6.232 229.517 6.968C228.781 7.672 228.413 8.504 228.413 9.464C228.413 10.328 228.669 11.112 229.181 11.816C229.725 12.488 230.557 13.128 231.677 13.736C232.797 14.344 234.253 14.968 236.045 15.608C237.037 15.96 238.029 16.408 239.021 16.952C240.045 17.496 240.973 18.184 241.805 19.016C242.637 19.816 243.293 20.76 243.773 21.848C244.285 22.936 244.541 24.216 244.541 25.688C244.541 27.256 244.237 28.664 243.629 29.912C243.021 31.16 242.189 32.216 241.133 33.08C240.077 33.912 238.877 34.552 237.533 35C236.221 35.48 234.845 35.72 233.405 35.72C231.421 35.72 229.581 35.336 227.885 34.568C226.221 33.768 224.765 32.712 223.517 31.4C222.269 30.088 221.277 28.664 220.541 27.128L224.765 24.2ZM246.993 6.632V1.4H270.417V6.632H261.537V35H255.825V6.632H246.993ZM274.541 1.4H280.253V35H274.541V1.4ZM291.936 18.2C291.936 20.568 292.464 22.648 293.52 24.44C294.608 26.232 296.016 27.624 297.744 28.616C299.504 29.576 301.408 30.056 303.456 30.056C305.056 30.056 306.496 29.848 307.776 29.432C309.056 29.016 310.208 28.456 311.232 27.752C312.288 27.016 313.2 26.2 313.968 25.304V32.024C312.56 33.176 311.04 34.056 309.408 34.664C307.776 35.272 305.728 35.576 303.264 35.576C300.8 35.576 298.496 35.16 296.352 34.328C294.24 33.496 292.4 32.296 290.832 30.728C289.264 29.16 288.032 27.32 287.136 25.208C286.272 23.064 285.84 20.728 285.84 18.2C285.84 15.672 286.272 13.352 287.136 11.24C288.032 9.096 289.264 7.24 290.832 5.672C292.4 4.104 294.24 2.904 296.352 2.072C298.496 1.24 300.8 0.823999 303.264 0.823999C305.728 0.823999 307.776 1.128 309.408 1.736C311.04 2.344 312.56 3.224 313.968 4.376V11.096C313.2 10.2 312.288 9.4 311.232 8.696C310.208 7.96 309.056 7.384 307.776 6.968C306.496 6.552 305.056 6.344 303.456 6.344C301.408 6.344 299.504 6.84 297.744 7.832C296.016 8.792 294.608 10.168 293.52 11.96C292.464 13.72 291.936 15.8 291.936 18.2Z" fill="#2EC4B6"/>
<path d="M320.947 1.4H326.755V35H320.947V1.4ZM339.235 1.4H346.051L331.891 17.144L346.771 35H339.811L325.027 17.288L339.235 1.4ZM354.17 35V30.008H371.114V35H354.17ZM354.17 6.392V1.4H371.114V6.392H354.17ZM354.17 19.448V14.552H370.154V19.448H354.17ZM350.666 1.4H356.234V35H350.666V1.4ZM385 18.968H391.144L402.52 35H395.704L385 18.968ZM378.088 1.4H383.752V35H378.088V1.4ZM381.448 6.296V1.4H388.456C390.888 1.4 393 1.832 394.792 2.696C396.616 3.56 398.024 4.776 399.016 6.344C400.008 7.88 400.504 9.704 400.504 11.816C400.504 13.928 400.008 15.768 399.016 17.336C398.024 18.904 396.616 20.12 394.792 20.984C393 21.848 390.888 22.28 388.456 22.28H381.448V17.624H388.216C389.496 17.624 390.616 17.4 391.576 16.952C392.568 16.504 393.336 15.864 393.88 15.032C394.424 14.168 394.696 13.144 394.696 11.96C394.696 10.744 394.424 9.72 393.88 8.888C393.336 8.056 392.568 7.416 391.576 6.968C390.616 6.52 389.496 6.296 388.216 6.296H381.448ZM408.843 24.2C409.579 25.48 410.363 26.616 411.195 27.608C412.059 28.568 413.003 29.32 414.027 29.864C415.051 30.376 416.203 30.632 417.483 30.632C419.019 30.632 420.267 30.216 421.227 29.384C422.187 28.552 422.667 27.48 422.667 26.168C422.667 24.92 422.363 23.928 421.755 23.192C421.147 22.424 420.299 21.784 419.211 21.272C418.155 20.728 416.923 20.2 415.515 19.688C414.683 19.4 413.755 19.016 412.731 18.536C411.707 18.024 410.731 17.4 409.803 16.664C408.875 15.896 408.107 14.968 407.499 13.88C406.891 12.76 406.587 11.416 406.587 9.848C406.587 8.056 407.051 6.488 407.979 5.144C408.907 3.768 410.155 2.712 411.723 1.976C413.323 1.208 415.131 0.823999 417.147 0.823999C419.131 0.823999 420.859 1.176 422.331 1.88C423.803 2.584 425.035 3.48 426.027 4.568C427.051 5.656 427.851 6.792 428.427 7.976L423.819 10.568C423.403 9.736 422.875 8.968 422.235 8.264C421.595 7.528 420.843 6.952 419.979 6.536C419.147 6.088 418.171 5.864 417.051 5.864C415.483 5.864 414.331 6.232 413.595 6.968C412.859 7.672 412.491 8.504 412.491 9.464C412.491 10.328 412.747 11.112 413.259 11.816C413.803 12.488 414.635 13.128 415.755 13.736C416.875 14.344 418.331 14.968 420.123 15.608C421.115 15.96 422.107 16.408 423.099 16.952C424.123 17.496 425.051 18.184 425.883 19.016C426.715 19.816 427.371 20.76 427.851 21.848C428.363 22.936 428.619 24.216 428.619 25.688C428.619 27.256 428.315 28.664 427.707 29.912C427.099 31.16 426.267 32.216 425.211 33.08C424.155 33.912 422.955 34.552 421.611 35C420.299 35.48 418.923 35.72 417.483 35.72C415.499 35.72 413.659 35.336 411.963 34.568C410.299 33.768 408.843 32.712 407.595 31.4C406.347 30.088 405.355 28.664 404.619 27.128L408.843 24.2Z" fill="#0496FF"/>
</svg>
