<svg width="160" height="71" viewBox="0 0 160 71" fill="none" xmlns="http://www.w3.org/2000/svg">
<path d="M0.0598323 5.48558C0.915003 -1.04322 7.16866 -0.510111 10.7719 0.875746C12.2723 1.35385 41.7715 28.876 44.2715 29.376C46.7715 29.876 96.2715 30.376 98.2715 29.376C100.271 28.376 99.7564 25.0881 98.2715 24.876C95.1757 24.4337 71.7379 24.7738 56.3317 24.8583C52.7266 24.878 48.9986 23.8427 46.7778 21.0027C41.4176 14.1482 48.6396 10.876 50.7715 10.876C53.0076 10.876 102.52 8.06319 113.771 10.876C127.771 14.376 149.771 41.876 152.271 44.876C154.771 47.876 159.771 64.613 159.271 69.613C158.771 74.613 126.771 55.876 123.271 54.376C119.771 52.876 48.7715 54.376 44.7715 54.376C41.1003 54.376 17.2123 28.2627 3.64636 13.9191C1.4495 11.5963 -0.355394 8.65563 0.0598323 5.48558Z" fill="white"/>
</svg>
