<svg width="1195" height="1300" viewBox="0 0 1195 1300" fill="none" xmlns="http://www.w3.org/2000/svg">
<path d="M333.054 450.702L577.422 583.494C579.014 584.358 580.013 586.017 580.035 587.828L583.558 886.52C583.801 907.135 556.47 914.591 546.211 896.707L306.157 478.226C296.125 460.739 315.34 441.076 333.054 450.702Z" fill="#12EA68"/>
<path d="M8.66741 264.611L228.332 388.639C240.33 395.413 242.045 412.005 231.688 421.09L56.9252 574.386C44.5403 585.249 25.0681 577.319 23.7964 560.894L1.22402 269.351C0.915182 265.362 5.18351 262.644 8.66741 264.611Z" fill="#12EA68"/>
<path d="M59.0173 586.991L223.956 438.088C242.094 421.714 270.763 426.568 282.5 448L555.963 924.845C559.6 931.187 561.641 938.317 561.912 945.623C562.573 963.48 552.634 980.045 536.567 987.865L336.572 1085.2C325.179 1090.75 311.856 1090.68 300.523 1085.01C293.335 1081.42 287.371 1075.78 283.38 1068.8L48.6941 658.575C43.9947 650.361 41.7231 640.981 42.1433 631.527L42.5718 621.885C43.1657 608.522 49.0889 595.954 59.0173 586.991Z" fill="#12EA68"/>
<path d="M59.0242 923.474L33.0895 683.578C31.9275 672.829 46.2812 668.139 51.6902 677.5L270.915 1056.91C276.27 1066.18 265.288 1076.25 256.521 1070.11L67.4368 937.707C62.711 934.398 59.6443 929.21 59.0242 923.474Z" fill="#12EA68"/>
<path d="M583.891 1004.03L587.378 1289.99C587.428 1294.11 582.75 1296.52 579.424 1294.09L346.858 1123.8C334.803 1114.97 336.331 1096.52 349.675 1089.8L554.894 986.412C568.1 979.759 583.71 989.243 583.891 1004.03Z" fill="#12EA68"/>
<path d="M590.447 886.5L588.496 588.669C588.484 586.823 589.491 585.12 591.114 584.24L841.68 448.501C859.389 438.907 878.572 458.551 868.56 476.028L627.801 896.311C617.647 914.037 590.581 906.928 590.447 886.5Z" fill="#F64258"/>
<path d="M618.393 922.247L886.573 455.681C890.777 448.367 896.906 442.347 904.294 438.274C920.989 429.07 941.627 431.087 956.225 443.349L1126.66 586.514C1137.97 596.014 1144.5 610.029 1144.5 624.799V631.722C1144.5 640.423 1142.23 648.974 1137.91 656.529L902.363 1068.74C898.525 1075.46 892.948 1081.01 886.219 1084.83C873.877 1091.82 858.881 1092.28 846.133 1086.06L637.369 984.141C622.152 976.712 612.5 961.259 612.5 944.326C612.5 936.578 614.532 928.965 618.393 922.247Z" fill="#F64258"/>
<path d="M594.413 1289.92L591.795 1002.87C591.66 988.003 607.223 978.191 620.582 984.725L837.28 1090.72C850.907 1097.38 852.443 1116.2 840.077 1124.99L602.309 1293.95C599.015 1296.29 594.449 1293.96 594.413 1289.92Z" fill="#F64258"/>
<path d="M959.393 1057.23L1134.18 927.35C1135.34 926.492 1136.07 925.178 1136.18 923.744L1156.82 671.507C1157.69 660.838 1143.46 656.442 1138.16 665.744L930.083 1031.29C919.375 1050.1 942.019 1070.14 959.393 1057.23Z" fill="#F64258"/>
<path d="M1162.73 567.495L1192.07 272.842C1192.47 268.859 1188.26 266.048 1184.73 267.942L949.113 394.476C936.624 401.183 934.884 418.395 945.778 427.466L1130.04 580.883C1142.36 591.145 1161.15 583.454 1162.73 567.495Z" fill="#F64258"/>
<path d="M239.36 388.575L9.18831 261.089C5.50553 259.049 5.83821 253.649 9.74352 252.077L272.986 146.091C287.352 140.307 302.558 152.341 300.228 167.651L268.822 374.088C266.727 387.86 251.546 395.325 239.36 388.575Z" fill="white"/>
<path d="M277.037 365.579L309.09 161.24C311.243 147.515 319.581 135.54 331.705 128.758C338.456 124.982 346.061 123 353.795 123H833.672C839.831 123 845.93 124.207 851.625 126.552C867.31 133.01 878.318 147.396 880.451 164.224L905.338 360.559C907.214 375.355 899.142 389.624 885.494 395.638C881.212 397.525 876.583 398.5 871.903 398.5H301.5C285.571 396.303 274.545 381.464 277.037 365.579Z" fill="white"/>
<path d="M373.562 94.6638L593.013 0.849337C594.281 0.307334 595.716 0.312959 596.98 0.864889L819.292 97.9713C829.26 102.325 826.091 117.216 815.214 117.135L377.418 113.859C366.58 113.777 363.596 98.9241 373.562 94.6638Z" fill="white"/>
<path d="M943.844 389.053L1184.77 265.971C1188.58 264.023 1188.34 258.498 1184.38 256.886L916.192 147.881C902.019 142.12 886.889 153.759 888.821 168.936L914.905 373.769C916.655 387.511 931.507 395.355 943.844 389.053Z" fill="white"/>
<path d="M842.503 441.617L587.387 578.72C585.896 579.521 584.101 579.513 582.616 578.699L332.46 441.537C314.312 431.586 321.378 404 342.075 404H833.036C853.822 404 860.813 431.777 842.503 441.617Z" fill="white"/>
</svg>
