<svg width="1471" height="1619" viewBox="0 0 1471 1619" fill="none" xmlns="http://www.w3.org/2000/svg">
<path d="M737.405 436.533L731.182 13.8741C731.125 9.99338 726.13 8.45981 723.905 11.6398L504.199 325.643C502.785 327.664 503.519 330.471 505.743 331.54L731.672 440.197C734.35 441.485 737.449 439.505 737.405 436.533Z" fill="#FFFF00"/>
<path d="M457.38 392.834L490.115 346.425C492.934 342.429 498.229 341.058 502.632 343.182L731.845 453.772C735.303 455.44 737.5 458.94 737.5 462.778V511.529C737.5 513.777 736.743 515.96 735.35 517.724L508.218 805.522C505.431 809.053 500.628 810.289 496.483 808.541L468.007 796.533C464.356 794.993 461.958 791.444 461.894 787.482L455.553 398.762C455.519 396.642 456.158 394.567 457.38 392.834Z" fill="#FFFF00"/>
<path d="M235.422 710.743L437.999 415.613C440.768 411.579 447.084 413.512 447.122 418.404L449.984 792.947C449.994 794.262 449.486 795.529 448.569 796.472L417.344 828.576C415.689 830.278 413.064 830.581 411.064 829.301L236.849 717.784C234.47 716.261 233.824 713.072 235.422 710.743Z" fill="#FFFF00"/>
<path d="M746.839 1024.58L738.252 547.992C738.167 543.295 732.239 541.297 729.329 544.984L514.076 817.638C513.379 818.52 513 819.612 513 820.736V893.139C513 894.911 513.939 896.552 515.467 897.45L739.307 1028.98C742.675 1030.96 746.91 1028.48 746.839 1024.58Z" fill="#FFFF00"/>
<path d="M182.574 1176.02L185.381 798.569C185.417 793.662 179.099 791.644 176.285 795.665L2.75913 1043.56C1.21844 1045.76 1.69251 1048.78 3.83265 1050.41L174.552 1179.97C177.831 1182.46 182.544 1180.14 182.574 1176.02Z" fill="#FFFF00"/>
<path d="M199.267 762.958L220.494 732.421C223.566 728.001 229.586 726.806 234.114 729.718L405.192 839.73C407.897 841.469 409.6 844.403 409.769 847.615L414.32 934.083C414.437 936.298 413.813 938.489 412.548 940.311L227.451 1206.93C224.206 1211.6 217.721 1212.63 213.189 1209.19L198.488 1198.03C195.978 1196.12 194.513 1193.14 194.535 1189.99L197.478 768.596C197.492 766.579 198.116 764.614 199.267 762.958Z" fill="#FFFF00"/>
<path d="M446.72 955.285L426.633 947.846C424.495 947.054 422.091 947.809 420.79 949.683L233.735 1219.06C232.207 1221.26 232.686 1224.28 234.822 1225.9L440.026 1381.46C443.31 1383.94 448.027 1381.62 448.046 1377.49L449.984 959.997C449.994 957.897 448.69 956.015 446.72 955.285Z" fill="#FFFF00"/>
<path d="M742.068 1044.6L514.817 911.007C510.821 908.659 505.736 909.363 502.529 912.709L464.762 952.118C462.989 953.968 461.994 956.429 461.982 958.992L460.022 1391.55C460.008 1394.67 461.452 1397.62 463.925 1399.52L478.45 1410.69C482.678 1413.94 488.714 1413.31 492.168 1409.24L744.621 1112.11C746.157 1110.3 747 1108 747 1105.63V1053.22C747 1049.68 745.124 1046.4 742.068 1044.6Z" fill="#FFFF00"/>
<path d="M752.896 1608.8L748.136 1140.37C748.089 1135.75 742.328 1133.66 739.329 1137.18L498.929 1419.47C497.067 1421.66 497.425 1424.96 499.712 1426.7L744.873 1612.83C748.184 1615.34 752.939 1612.95 752.896 1608.8Z" fill="#FFFF00"/>
<path d="M749.365 435.038L742.276 16.2815C742.192 11.3554 748.532 9.29079 751.365 13.3213L970.669 325.262C972.424 327.759 971.553 331.232 968.827 332.604L756.612 439.42C753.32 441.077 749.428 438.724 749.365 435.038Z" fill="#12EA68"/>
<path d="M758.823 1023.71L749.789 548.7C749.697 543.875 755.817 541.732 758.755 545.561L969.343 819.993C970.088 820.964 970.451 822.174 970.364 823.395L965.673 888.601C965.563 890.117 964.771 891.501 963.519 892.363L766.655 1027.74C763.374 1029.99 758.899 1027.69 758.823 1023.71Z" fill="#12EA68"/>
<path d="M972.189 344.174L755.012 453.232C751.633 454.929 749.5 458.387 749.5 462.168V511.598C749.5 513.804 750.229 515.948 751.574 517.696L973.002 805.504C975.908 809.281 981.076 810.483 985.351 808.375L1008.92 796.75C1012.34 795.066 1014.5 791.589 1014.5 787.782V399.756C1014.5 397.952 1014.01 396.182 1013.09 394.633L985.264 347.987C982.579 343.486 976.873 341.821 972.189 344.174Z" fill="#12EA68"/>
<path d="M1239.95 706.762L1035.56 422.595C1032.72 418.653 1026.5 420.659 1026.5 425.514V793.033C1026.5 794.297 1026.98 795.514 1027.84 796.44L1057.13 827.911C1058.79 829.695 1061.49 830.023 1063.53 828.687L1238.63 713.863C1241.01 712.302 1241.61 709.072 1239.95 706.762Z" fill="#12EA68"/>
<path d="M1001.27 1415.65L768.973 1138.7C765.956 1135.1 760.094 1137.27 760.142 1141.96L764.893 1607.99C764.936 1612.2 769.848 1614.47 773.088 1611.78L1000.64 1422.71C1002.77 1420.94 1003.05 1417.77 1001.27 1415.65Z" fill="#12EA68"/>
<path d="M962.899 907.363L763.392 1043.99C760.646 1045.87 759.016 1049 759.042 1052.32L759.471 1106.39C759.49 1108.72 760.322 1110.98 761.824 1112.76L1007.57 1404.38C1011.13 1408.59 1017.42 1409.14 1021.64 1405.6L1028.84 1399.57C1031.15 1397.63 1032.47 1394.74 1032.41 1391.72L1024.57 964.83C1024.53 962.364 1023.57 960.002 1021.89 958.197L975.866 908.797C972.494 905.177 966.981 904.567 962.899 907.363Z" fill="#12EA68"/>
<path d="M1053.57 950.121L1038.78 959.982C1037.36 960.928 1036.52 962.531 1036.55 964.236L1044.3 1376.61C1044.38 1380.8 1049.27 1383.04 1052.5 1380.36L1252.33 1214.54C1254.39 1212.84 1254.74 1209.82 1253.14 1207.69L1060.34 951.276C1058.75 949.157 1055.78 948.65 1053.57 950.121Z" fill="#12EA68"/>
<path d="M1240.87 726.662L1069.52 839.038C1066.7 840.887 1065 844.03 1065 847.4V934.165C1065 936.33 1065.7 938.436 1067 940.167L1258.72 1195.63C1262.14 1200.19 1268.68 1200.97 1273.08 1197.35L1278.3 1193.05C1280.64 1191.12 1281.98 1188.24 1281.94 1185.21L1277.03 768.75C1277.01 766.95 1276.5 765.189 1275.57 763.653L1254.88 729.81C1251.94 724.99 1245.59 723.565 1240.87 726.662Z" fill="#12EA68"/>
<path d="M1468.35 1029.72L1298.29 787.249C1295.47 783.223 1289.14 785.265 1289.2 790.182L1293.87 1169.54C1293.92 1173.74 1298.82 1176.01 1302.06 1173.33L1467.44 1036.44C1469.45 1034.78 1469.85 1031.85 1468.35 1029.72Z" fill="#12EA68"/>
</svg>
