<svg width="167" height="117" viewBox="0 0 167 117" fill="none" xmlns="http://www.w3.org/2000/svg">
<path d="M140.707 3.5H37.8008C29.5165 3.5 22.8008 10.2157 22.8008 18.5V27.5C22.8008 35.7843 29.5165 42.5 37.8008 42.5H134.809C137.937 42.5 140.987 43.4779 143.531 45.2969L161.494 58.1361C162.344 58.7438 163.439 57.8045 162.968 56.8716L157.319 45.6899C156.259 43.5927 155.707 41.2758 155.707 38.9261V18.5C155.707 10.2157 148.991 3.5 140.707 3.5Z" stroke="#D9D9D9" stroke-width="7"/>
<path d="M25.8944 58.5H128.801C137.085 58.5 143.801 65.2157 143.801 73.5V82.5C143.801 90.7843 137.085 97.5 128.801 97.5H31.7928C28.6647 97.5 25.6149 98.4779 23.0701 100.297L5.10789 113.136C4.25768 113.744 3.16257 112.804 3.63382 111.872L9.28282 100.69C10.3424 98.5927 10.8944 96.2758 10.8944 93.9261V73.5C10.8944 65.2157 17.6101 58.5 25.8944 58.5Z" stroke="#D9D9D9" stroke-width="7"/>
<path d="M32.8008 16.7L43.3008 21.5M32.8008 16.7V28.1L43.3008 33.5M32.8008 16.7L38.0508 14.6L43.3008 12.5L53.8008 16.7M43.3008 21.5L53.8008 16.7M43.3008 21.5V33.5M53.8008 16.7V28.1L43.3008 33.5" stroke="#D9D9D9" stroke-width="3"/>
<path d="M108.801 71.7L119.301 76.5M108.801 71.7V83.1L119.301 88.5M108.801 71.7L114.051 69.6L119.301 67.5L129.801 71.7M119.301 76.5L129.801 71.7M119.301 76.5V88.5M129.801 71.7V83.1L119.301 88.5" stroke="#D9D9D9" stroke-width="3"/>
</svg>
