<svg width="132" height="120" viewBox="0 0 132 120" fill="none" xmlns="http://www.w3.org/2000/svg">
<path d="M65.3638 4.22831L4.36376 54.5341C4.13341 54.724 4 55.007 4 55.3055V114.704C4 115.256 4.44771 115.704 5 115.704H51.6275C52.1797 115.704 52.6275 115.256 52.6275 114.704V81.3993C52.6275 80.847 53.0752 80.3993 53.6275 80.3993H77.1569C77.7092 80.3993 78.1569 80.847 78.1569 81.3993V114.704C78.1569 115.256 78.6046 115.704 79.1569 115.704H127C127.552 115.704 128 115.256 128 114.704V55.3055C128 55.007 127.867 54.724 127.636 54.5341L66.6362 4.22831C66.2668 3.92363 65.7332 3.92363 65.3638 4.22831Z" stroke="#ffffffff" stroke-opacity="1" stroke-width="8"/>
</svg>
