<svg width="142" height="125" viewBox="0 0 142 125" fill="none" xmlns="http://www.w3.org/2000/svg">
<path d="M63 56H4C8.80278 40.7763 13.619 34.4065 32.7545 34C50.8823 34.2036 57.143 39.5789 63 56Z" stroke="#50B6FF" stroke-width="5"/>
<path d="M33.5 2.5C39.6649 2.5 44.5 7.2891 44.5 13C44.5 18.7109 39.6649 23.5 33.5 23.5C27.3351 23.5 22.5 18.7109 22.5 13C22.5 7.2891 27.3351 2.5 33.5 2.5Z" stroke="#50B6FF" stroke-width="5"/>
<path d="M137 122H51C58.0007 99.1644 65.0209 89.6097 92.9134 89C119.337 89.3054 128.463 97.3683 137 122Z" stroke="#50B6FF" stroke-width="6"/>
<path d="M94 43C102.837 43 110 50.1634 110 59C110 67.8366 102.837 75 94 75C85.1634 75 78 67.8366 78 59C78 50.1634 85.1634 43 94 43Z" stroke="#50B6FF" stroke-width="6"/>
<path d="M23 74.6L37 81M23 74.6V89.8L37 97M23 74.6L30 71.8L37 69L51 74.6M37 81L51 74.6M37 81V97M51 74.6V89.8L37 97" stroke="#50B6FF" stroke-width="3"/>
</svg>
