<svg width="44" height="44" viewBox="0 0 44 44" fill="none" xmlns="http://www.w3.org/2000/svg">
<path d="M19.3429 0.0248659C21.0556 -0.131561 22.7536 0.455377 24.005 1.63522L41.9396 18.5454C44.3506 20.8187 44.4619 24.6158 42.1886 27.0268L28.3234 41.7329C26.0501 44.1438 22.2529 44.2551 19.8419 41.9819L1.88391 25.0503C0.652628 23.8893 -0.0311907 22.2618 0.00109355 20.5698L0.256953 7.13229C0.315398 4.07475 2.6647 1.55043 5.71008 1.27194L19.3429 0.0248659ZM12.7228 9.82662C10.7898 9.82662 9.22277 11.3936 9.22277 13.3266C9.22277 15.2596 10.7898 16.8266 12.7228 16.8266C14.6558 16.8266 16.2228 15.2596 16.2228 13.3266C16.2228 11.3936 14.6558 9.82662 12.7228 9.82662Z" fill="white"/>
</svg>
